<svg xmlns="http://www.w3.org/2000/svg" xmlns:xlink="http://www.w3.org/1999/xlink" width="500" zoomAndPan="magnify" viewBox="0 0 375 149.999998" height="200" preserveAspectRatio="xMidYMid meet" version="1.0"><defs><g/><clipPath id="503e0cf9bd"><path d="M 17.460938 26.734375 L 96.960938 26.734375 L 96.960938 121.234375 L 17.460938 121.234375 Z M 17.460938 26.734375 " clip-rule="nonzero"/></clipPath><clipPath id="b08ab38ed5"><path d="M 17.453125 35.582031 L 43.121094 35.582031 L 43.121094 82.605469 L 17.453125 82.605469 Z M 17.453125 35.582031 " clip-rule="nonzero"/></clipPath><clipPath id="3d2da14a70"><path d="M 43.121094 59.054688 L 17.453125 82.527344 L 17.453125 35.582031 Z M 43.121094 59.054688 " clip-rule="nonzero"/></clipPath><clipPath id="3fc2b0609c"><path d="M 0.453125 0.582031 L 26.121094 0.582031 L 26.121094 47.558594 L 0.453125 47.558594 Z M 0.453125 0.582031 " clip-rule="nonzero"/></clipPath><clipPath id="10011876f4"><path d="M 26.121094 24.054688 L 0.453125 47.527344 L 0.453125 0.582031 Z M 26.121094 24.054688 " clip-rule="nonzero"/></clipPath><clipPath id="ef025302f5"><rect x="0" width="27" y="0" height="48"/></clipPath><clipPath id="8ff0587a62"><rect x="0" width="278" y="0" height="150"/></clipPath></defs><rect x="-37.5" width="450" fill="#ffffff" y="-15" height="179.999997" fill-opacity="1"/><rect x="-37.5" width="450" fill="#000000" y="-15" height="179.999997" fill-opacity="1"/><g clip-path="url(#503e0cf9bd)"><path fill="#ffffff" d="M 97.21875 121.195312 L 67.882812 121.195312 L 49.667969 91.613281 L 42.644531 91.613281 L 42.644531 121.195312 L 17.578125 121.195312 L 17.539062 91.144531 L 42.519531 68.257812 L 52.769531 68.316406 C 58.101562 68.371094 62.960938 64.625 62.960938 58.828125 C 62.960938 52.96875 58.039062 49.339844 52.769531 49.339844 L 42.523438 49.339844 L 17.460938 26.796875 L 53.300781 26.796875 C 73.679688 26.796875 88.261719 40.558594 88.261719 57.484375 C 88.261719 69.253906 81.171875 79.09375 71.921875 83.308594 Z M 97.21875 121.195312 " fill-opacity="1" fill-rule="nonzero"/></g><g clip-path="url(#b08ab38ed5)"><g clip-path="url(#3d2da14a70)"><g transform="matrix(1, 0, 0, 1, 17, 35)"><g clip-path="url(#ef025302f5)"><g clip-path="url(#3fc2b0609c)"><g clip-path="url(#10011876f4)"><path fill="#ff3131" d="M 26.121094 0.582031 L 26.121094 47.503906 L 0.453125 47.503906 L 0.453125 0.582031 Z M 26.121094 0.582031 " fill-opacity="1" fill-rule="nonzero"/></g></g></g></g></g></g><g transform="matrix(1, 0, 0, 1, 90, -0.000000000000007527)"><g clip-path="url(#8ff0587a62)"><g fill="#fffaf9" fill-opacity="1"><g transform="translate(0.744659, 121.002789)"><g><path d="M 50.328125 1.9375 C 44.484375 1.9375 39.148438 0.96875 34.328125 -0.96875 C 29.515625 -2.90625 25.382812 -5.59375 21.9375 -9.03125 C 18.5 -12.476562 15.8125 -16.609375 13.875 -21.421875 C 11.9375 -26.242188 10.96875 -31.578125 10.96875 -37.421875 L 10.96875 -90.34375 L 30.328125 -90.34375 L 30.328125 -37.421875 C 30.328125 -34.160156 30.820312 -31.238281 31.8125 -28.65625 C 32.800781 -26.070312 34.175781 -23.832031 35.9375 -21.9375 C 37.707031 -20.039062 39.816406 -18.597656 42.265625 -17.609375 C 44.722656 -16.617188 47.410156 -16.125 50.328125 -16.125 C 53.253906 -16.125 55.941406 -16.617188 58.390625 -17.609375 C 60.847656 -18.597656 62.957031 -20.039062 64.71875 -21.9375 C 66.488281 -23.832031 67.867188 -26.070312 68.859375 -28.65625 C 69.847656 -31.238281 70.34375 -34.160156 70.34375 -37.421875 L 70.34375 -90.34375 L 89.703125 -90.34375 L 89.703125 -37.421875 C 89.703125 -31.578125 88.734375 -26.242188 86.796875 -21.421875 C 84.859375 -16.609375 82.164062 -12.476562 78.71875 -9.03125 C 75.28125 -5.59375 71.128906 -2.90625 66.265625 -0.96875 C 61.410156 0.96875 56.097656 1.9375 50.328125 1.9375 Z M 50.328125 1.9375 "/></g></g></g><g fill="#fffaf9" fill-opacity="1"><g transform="translate(101.411163, 121.002789)"><g><path d="M 37.421875 1.9375 C 31.578125 1.9375 26.476562 1.207031 22.125 -0.25 C 17.78125 -1.71875 14.148438 -3.351562 11.234375 -5.15625 C 7.785156 -7.226562 4.898438 -9.597656 2.578125 -12.265625 L 15.484375 -25.171875 C 17.035156 -23.359375 18.882812 -21.722656 21.03125 -20.265625 C 22.84375 -19.054688 25.0625 -17.957031 27.6875 -16.96875 C 30.3125 -15.976562 33.34375 -15.484375 36.78125 -15.484375 C 41.945312 -15.484375 45.710938 -16.472656 48.078125 -18.453125 C 50.441406 -20.429688 51.625 -22.882812 51.625 -25.8125 C 51.625 -28.394531 50.503906 -30.4375 48.265625 -31.9375 C 46.023438 -33.445312 43.226562 -34.800781 39.875 -36 C 36.519531 -37.207031 32.90625 -38.457031 29.03125 -39.75 C 25.164062 -41.039062 21.554688 -42.738281 18.203125 -44.84375 C 14.847656 -46.957031 12.050781 -49.671875 9.8125 -52.984375 C 7.570312 -56.296875 6.453125 -60.578125 6.453125 -65.828125 C 6.453125 -69.347656 7.203125 -72.722656 8.703125 -75.953125 C 10.210938 -79.179688 12.363281 -82 15.15625 -84.40625 C 17.957031 -86.8125 21.398438 -88.722656 25.484375 -90.140625 C 29.578125 -91.566406 34.203125 -92.28125 39.359375 -92.28125 C 44.347656 -92.28125 48.757812 -91.632812 52.59375 -90.34375 C 56.425781 -89.050781 59.585938 -87.628906 62.078125 -86.078125 C 65.003906 -84.273438 67.539062 -82.253906 69.6875 -80.015625 L 56.78125 -67.109375 C 55.40625 -68.578125 53.898438 -69.867188 52.265625 -70.984375 C 50.804688 -71.929688 49.039062 -72.8125 46.96875 -73.625 C 44.90625 -74.445312 42.585938 -74.859375 40.015625 -74.859375 C 35.109375 -74.859375 31.617188 -73.992188 29.546875 -72.265625 C 27.484375 -70.546875 26.453125 -68.398438 26.453125 -65.828125 C 26.453125 -63.242188 27.570312 -61.195312 29.8125 -59.6875 C 32.050781 -58.1875 34.847656 -56.832031 38.203125 -55.625 C 41.554688 -54.414062 45.164062 -53.164062 49.03125 -51.875 C 52.90625 -50.59375 56.519531 -48.894531 59.875 -46.78125 C 63.238281 -44.675781 66.035156 -41.96875 68.265625 -38.65625 C 70.503906 -35.34375 71.625 -31.0625 71.625 -25.8125 C 71.625 -22.113281 70.847656 -18.585938 69.296875 -15.234375 C 67.753906 -11.878906 65.5 -8.929688 62.53125 -6.390625 C 59.5625 -3.847656 55.96875 -1.820312 51.75 -0.3125 C 47.539062 1.1875 42.765625 1.9375 37.421875 1.9375 Z M 37.421875 1.9375 "/></g></g></g><g fill="#fffaf9" fill-opacity="1"><g transform="translate(176.911037, 121.002789)"><g><path d="M 11.609375 -90.34375 L 30.96875 -90.34375 L 30.96875 -54.84375 L 69.6875 -54.84375 L 69.6875 -90.34375 L 89.046875 -90.34375 L 89.046875 0 L 69.6875 0 L 69.6875 -36.78125 L 30.96875 -36.78125 L 30.96875 0 L 11.609375 0 Z M 11.609375 -90.34375 "/></g></g></g></g></g></svg>