<svg xmlns="http://www.w3.org/2000/svg" xmlns:xlink="http://www.w3.org/1999/xlink" width="500" zoomAndPan="magnify" viewBox="0 0 375 374.999991" height="500" preserveAspectRatio="xMidYMid meet" version="1.0"><defs><clipPath id="f3cbbdcfb9"><path d="M 0 72.308594 L 195.015625 72.308594 L 195.015625 302.558594 L 0 302.558594 Z M 0 72.308594 " clip-rule="nonzero"/></clipPath><clipPath id="f27c9e53e9"><path d="M 180.105469 73.808594 L 375 73.808594 L 375 304 L 180.105469 304 Z M 180.105469 73.808594 " clip-rule="nonzero"/></clipPath><clipPath id="140ab6e20f"><path d="M 183.835938 105.167969 L 191.335938 105.167969 L 191.335938 272.417969 L 183.835938 272.417969 Z M 183.835938 105.167969 " clip-rule="nonzero"/></clipPath></defs><rect x="-37.5" width="450" fill="#ffffff" y="-37.499999" height="449.999989" fill-opacity="1"/><rect x="-37.5" width="450" fill="#000000" y="-37.499999" height="449.999989" fill-opacity="1"/><g clip-path="url(#f3cbbdcfb9)"><path fill="#000000" d="M 195.144531 187.5 C 195.144531 189.386719 195.101562 191.269531 195.007812 193.152344 C 194.914062 195.035156 194.777344 196.914062 194.589844 198.789062 C 194.40625 200.667969 194.175781 202.535156 193.898438 204.402344 C 193.621094 206.265625 193.300781 208.125 192.933594 209.972656 C 192.566406 211.820312 192.152344 213.660156 191.695312 215.488281 C 191.234375 217.316406 190.734375 219.132812 190.1875 220.9375 C 189.640625 222.742188 189.046875 224.53125 188.414062 226.304688 C 187.777344 228.082031 187.097656 229.839844 186.378906 231.582031 C 185.65625 233.324219 184.894531 235.046875 184.085938 236.75 C 183.28125 238.453125 182.433594 240.136719 181.546875 241.800781 C 180.65625 243.460938 179.726562 245.101562 178.757812 246.71875 C 177.789062 248.335938 176.78125 249.929688 175.734375 251.496094 C 174.6875 253.0625 173.601562 254.605469 172.476562 256.117188 C 171.355469 257.632812 170.195312 259.117188 169 260.574219 C 167.804688 262.03125 166.574219 263.460938 165.308594 264.855469 C 164.039062 266.253906 162.742188 267.617188 161.40625 268.949219 C 160.074219 270.285156 158.710938 271.582031 157.3125 272.847656 C 155.917969 274.117188 154.488281 275.347656 153.03125 276.542969 C 151.574219 277.738281 150.089844 278.898438 148.574219 280.019531 C 147.0625 281.144531 145.519531 282.230469 143.953125 283.277344 C 142.386719 284.324219 140.792969 285.332031 139.175781 286.300781 C 137.558594 287.269531 135.917969 288.199219 134.257812 289.085938 C 132.59375 289.976562 130.910156 290.824219 129.207031 291.628906 C 127.503906 292.4375 125.78125 293.199219 124.039062 293.921875 C 122.296875 294.640625 120.539062 295.320312 118.761719 295.957031 C 116.988281 296.589844 115.199219 297.183594 113.394531 297.730469 C 111.589844 298.277344 109.773438 298.777344 107.945312 299.238281 C 106.117188 299.695312 104.277344 300.109375 102.429688 300.476562 C 100.582031 300.84375 98.722656 301.164062 96.859375 301.441406 C 94.992188 301.71875 93.125 301.949219 91.246094 302.132812 C 89.371094 302.320312 87.492188 302.457031 85.609375 302.550781 C 83.726562 302.644531 81.84375 302.6875 79.957031 302.6875 C 78.070312 302.6875 76.1875 302.644531 74.304688 302.550781 C 72.421875 302.457031 70.542969 302.320312 68.667969 302.132812 C 66.789062 301.949219 64.921875 301.71875 63.054688 301.441406 C 61.191406 301.164062 59.332031 300.84375 57.484375 300.476562 C 55.636719 300.109375 53.796875 299.695312 51.96875 299.238281 C 50.140625 298.777344 48.324219 298.277344 46.519531 297.730469 C 44.714844 297.183594 42.925781 296.589844 41.152344 295.957031 C 39.375 295.320312 37.617188 294.640625 35.875 293.921875 C 34.132812 293.199219 32.410156 292.4375 30.707031 291.628906 C 29.003906 290.824219 27.320312 289.976562 25.65625 289.085938 C 23.996094 288.199219 22.355469 287.269531 20.738281 286.300781 C 19.121094 285.332031 17.527344 284.324219 15.960938 283.277344 C 14.394531 282.230469 12.851562 281.144531 11.339844 280.019531 C 9.824219 278.898438 8.339844 277.738281 6.882812 276.542969 C 5.425781 275.347656 3.996094 274.117188 2.601562 272.847656 C 1.203125 271.582031 -0.160156 270.285156 -1.496094 268.949219 C -2.828125 267.617188 -4.125 266.253906 -5.394531 264.855469 C -6.660156 263.460938 -7.890625 262.03125 -9.085938 260.574219 C -10.28125 259.117188 -11.441406 257.632812 -12.5625 256.117188 C -13.6875 254.605469 -14.773438 253.0625 -15.820312 251.496094 C -16.867188 249.929688 -17.875 248.335938 -18.84375 246.71875 C -19.8125 245.101562 -20.742188 243.460938 -21.632812 241.800781 C -22.519531 240.136719 -23.367188 238.453125 -24.171875 236.75 C -24.980469 235.046875 -25.742188 233.324219 -26.464844 231.582031 C -27.1875 229.839844 -27.863281 228.082031 -28.5 226.304688 C -29.132812 224.53125 -29.726562 222.742188 -30.273438 220.9375 C -30.820312 219.132812 -31.324219 217.316406 -31.78125 215.488281 C -32.238281 213.660156 -32.652344 211.820312 -33.019531 209.972656 C -33.386719 208.125 -33.710938 206.265625 -33.984375 204.402344 C -34.261719 202.535156 -34.492188 200.667969 -34.679688 198.789062 C -34.863281 196.914062 -35 195.035156 -35.09375 193.152344 C -35.1875 191.269531 -35.234375 189.386719 -35.234375 187.5 C -35.234375 185.613281 -35.1875 183.730469 -35.09375 181.847656 C -35 179.964844 -34.863281 178.085938 -34.679688 176.210938 C -34.492188 174.332031 -34.261719 172.460938 -33.984375 170.597656 C -33.710938 168.734375 -33.386719 166.875 -33.019531 165.027344 C -32.652344 163.179688 -32.238281 161.339844 -31.78125 159.511719 C -31.324219 157.683594 -30.820312 155.867188 -30.273438 154.0625 C -29.726562 152.257812 -29.132812 150.46875 -28.5 148.695312 C -27.863281 146.917969 -27.1875 145.160156 -26.464844 143.417969 C -25.742188 141.675781 -24.980469 139.953125 -24.171875 138.25 C -23.367188 136.546875 -22.519531 134.863281 -21.632812 133.199219 C -20.742188 131.539062 -19.8125 129.898438 -18.84375 128.28125 C -17.875 126.664062 -16.867188 125.070312 -15.820312 123.503906 C -14.773438 121.9375 -13.6875 120.394531 -12.5625 118.882812 C -11.441406 117.367188 -10.28125 115.882812 -9.085938 114.425781 C -7.890625 112.96875 -6.660156 111.539062 -5.394531 110.144531 C -4.125 108.746094 -2.828125 107.382812 -1.496094 106.046875 C -0.160156 104.714844 1.203125 103.414062 2.601562 102.148438 C 3.996094 100.882812 5.425781 99.652344 6.882812 98.457031 C 8.339844 97.261719 9.824219 96.101562 11.339844 94.980469 C 12.851562 93.855469 14.394531 92.769531 15.960938 91.722656 C 17.527344 90.675781 19.121094 89.667969 20.738281 88.699219 C 22.355469 87.730469 23.996094 86.800781 25.65625 85.910156 C 27.320312 85.023438 29.003906 84.175781 30.707031 83.371094 C 32.410156 82.5625 34.132812 81.800781 35.875 81.078125 C 37.617188 80.355469 39.375 79.679688 41.152344 79.042969 C 42.925781 78.410156 44.714844 77.816406 46.519531 77.269531 C 48.324219 76.722656 50.140625 76.21875 51.96875 75.761719 C 53.796875 75.304688 55.636719 74.890625 57.484375 74.523438 C 59.332031 74.15625 61.191406 73.832031 63.054688 73.558594 C 64.921875 73.28125 66.789062 73.050781 68.667969 72.863281 C 70.542969 72.679688 72.421875 72.542969 74.304688 72.449219 C 76.1875 72.355469 78.070312 72.308594 79.957031 72.308594 C 81.84375 72.308594 83.726562 72.355469 85.609375 72.449219 C 87.492188 72.542969 89.371094 72.679688 91.246094 72.863281 C 93.125 73.050781 94.992188 73.28125 96.859375 73.558594 C 98.722656 73.832031 100.582031 74.15625 102.429688 74.523438 C 104.277344 74.890625 106.117188 75.304688 107.945312 75.761719 C 109.773438 76.21875 111.589844 76.722656 113.394531 77.269531 C 115.199219 77.816406 116.988281 78.410156 118.761719 79.042969 C 120.539062 79.679688 122.296875 80.355469 124.039062 81.078125 C 125.78125 81.800781 127.503906 82.5625 129.207031 83.371094 C 130.910156 84.175781 132.59375 85.023438 134.257812 85.910156 C 135.917969 86.800781 137.558594 87.730469 139.175781 88.699219 C 140.792969 89.667969 142.386719 90.675781 143.953125 91.722656 C 145.519531 92.769531 147.0625 93.855469 148.574219 94.980469 C 150.089844 96.101562 151.574219 97.261719 153.03125 98.457031 C 154.488281 99.652344 155.917969 100.882812 157.3125 102.148438 C 158.710938 103.414062 160.074219 104.714844 161.40625 106.046875 C 162.742188 107.382812 164.039062 108.746094 165.308594 110.144531 C 166.574219 111.539062 167.804688 112.96875 169 114.425781 C 170.195312 115.882812 171.355469 117.367188 172.476562 118.882812 C 173.601562 120.394531 174.6875 121.9375 175.734375 123.503906 C 176.78125 125.070312 177.789062 126.664062 178.757812 128.28125 C 179.726562 129.898438 180.65625 131.539062 181.546875 133.199219 C 182.433594 134.863281 183.28125 136.546875 184.085938 138.25 C 184.894531 139.953125 185.65625 141.675781 186.378906 143.417969 C 187.097656 145.160156 187.777344 146.917969 188.414062 148.695312 C 189.046875 150.46875 189.640625 152.257812 190.1875 154.0625 C 190.734375 155.867188 191.234375 157.683594 191.695312 159.511719 C 192.152344 161.339844 192.566406 163.179688 192.933594 165.027344 C 193.300781 166.875 193.621094 168.734375 193.898438 170.597656 C 194.175781 172.460938 194.40625 174.332031 194.589844 176.210938 C 194.777344 178.085938 194.914062 179.964844 195.007812 181.847656 C 195.101562 183.730469 195.144531 185.613281 195.144531 187.5 Z M 195.144531 187.5 " fill-opacity="1" fill-rule="nonzero"/></g><path fill="#e0e0e0" d="M 151.726562 166.78125 L 132.289062 166.78125 L 120.519531 188.667969 C 120.214844 189.210938 119.78125 189.605469 119.207031 189.855469 L 119.027344 189.925781 C 118.761719 190.027344 118.488281 190.082031 118.207031 190.097656 L 118.09375 190.113281 L 46.636719 190.113281 L 56.394531 207.089844 L 105.421875 207.015625 L 105.882812 207.066406 C 106.101562 207.105469 106.3125 207.167969 106.515625 207.257812 C 106.71875 207.347656 106.910156 207.460938 107.089844 207.59375 C 107.265625 207.726562 107.421875 207.882812 107.5625 208.054688 C 107.703125 208.226562 107.820312 208.414062 107.917969 208.617188 C 108.011719 208.816406 108.082031 209.027344 108.128906 209.246094 C 108.171875 209.460938 108.191406 209.683594 108.183594 209.90625 C 108.175781 210.128906 108.140625 210.34375 108.082031 210.558594 C 108.019531 210.773438 107.933594 210.976562 107.824219 211.171875 L 107.824219 211.164062 L 79.058594 263.085938 L 88.464844 263.085938 L 90.171875 263.09375 L 97.574219 263.09375 C 97.761719 263.09375 98.328125 263.09375 98.769531 262.300781 Z M 100.71875 212.589844 L 81.714844 212.609375 L 64.832031 243.179688 C 64.527344 243.734375 64.59375 244.300781 64.738281 244.53125 L 69.476562 252.378906 L 70.726562 254.453125 L 71.953125 256.484375 L 74.277344 260.328125 Z M 27.648438 213.777344 L 7.964844 213.777344 L 14.507812 224.613281 L 17.582031 229.703125 C 17.839844 230.132812 18.410156 230.464844 18.878906 230.464844 L 36.992188 230.464844 Z M 41.929688 193.015625 L 32.40625 210.960938 L 41.859375 227.835938 L 51.484375 209.636719 L 41.929688 193.007812 Z M 80.914062 111.90625 L 62.175781 111.90625 C 61.921875 111.933594 61.484375 112.066406 61.136719 112.699219 L 60.945312 113.050781 C 57.726562 118.839844 16.378906 193.417969 8.1875 208.226562 L 27.589844 208.226562 L 39.367188 186.03125 C 39.601562 185.589844 39.933594 185.238281 40.363281 184.976562 C 40.792969 184.71875 41.257812 184.582031 41.757812 184.578125 C 41.789062 184.570312 41.820312 184.5625 41.851562 184.5625 L 112.980469 184.5625 C 111.695312 182.324219 110.414062 180.078125 109.144531 177.832031 C 107.132812 174.296875 104.773438 170.128906 103.507812 167.925781 L 55.714844 167.996094 L 54.464844 167.996094 C 54.25 167.992188 54.042969 167.964844 53.835938 167.910156 L 53.671875 167.859375 C 53.519531 167.8125 53.367188 167.753906 53.226562 167.679688 L 53.125 167.636719 L 53.039062 167.566406 C 52.960938 167.523438 52.878906 167.464844 52.800781 167.40625 C 52.660156 167.300781 52.53125 167.179688 52.417969 167.046875 L 52.324219 166.9375 L 52.246094 166.832031 C 52.195312 166.761719 52.144531 166.691406 52.101562 166.613281 C 52.003906 166.460938 51.933594 166.300781 51.886719 166.125 L 51.84375 165.996094 L 51.808594 165.867188 C 51.785156 165.78125 51.769531 165.695312 51.765625 165.605469 C 51.746094 165.507812 51.738281 165.40625 51.734375 165.304688 L 51.722656 165.203125 L 51.734375 165.066406 C 51.734375 164.964844 51.742188 164.859375 51.765625 164.757812 L 51.820312 164.503906 C 51.871094 164.320312 51.933594 164.144531 52.015625 163.972656 L 52.074219 163.828125 Z M 118.042969 147.148438 C 115.765625 151.316406 110.339844 161.332031 108.273438 165.101562 C 109.359375 166.996094 111.296875 170.394531 113.9375 175.050781 C 115.277344 177.414062 116.703125 179.933594 117.855469 181.941406 L 127.5 164.03125 Z M 85.667969 114.734375 L 59.195312 162.394531 L 78.199219 162.375 L 95.070312 131.820312 C 95.371094 131.265625 95.304688 130.695312 95.160156 130.464844 L 90.453125 122.664062 L 89.199219 120.589844 L 87.402344 117.59375 L 85.671875 114.734375 Z M 122.914062 144.535156 L 132.261719 161.222656 L 151.949219 161.222656 L 145.859375 151.144531 L 142.332031 145.304688 C 142.027344 144.824219 141.589844 144.570312 141.023438 144.542969 Z M 122.914062 144.535156 " fill-opacity="1" fill-rule="nonzero"/><g clip-path="url(#f27c9e53e9)"><path fill="#000000" d="M 295.164062 73.808594 C 297.050781 73.808594 298.929688 73.855469 300.8125 73.949219 C 302.691406 74.042969 304.570312 74.179688 306.445312 74.363281 C 308.316406 74.550781 310.1875 74.78125 312.050781 75.054688 C 313.910156 75.332031 315.765625 75.652344 317.613281 76.019531 C 319.460938 76.386719 321.296875 76.800781 323.125 77.257812 C 324.949219 77.714844 326.765625 78.21875 328.566406 78.765625 C 330.367188 79.3125 332.15625 79.902344 333.929688 80.535156 C 335.703125 81.171875 337.457031 81.847656 339.199219 82.570312 C 340.9375 83.289062 342.660156 84.050781 344.359375 84.855469 C 346.0625 85.664062 347.746094 86.507812 349.40625 87.398438 C 351.066406 88.285156 352.703125 89.210938 354.320312 90.179688 C 355.933594 91.148438 357.523438 92.15625 359.089844 93.203125 C 360.65625 94.246094 362.195312 95.332031 363.707031 96.453125 C 365.21875 97.574219 366.703125 98.734375 368.160156 99.929688 C 369.613281 101.121094 371.039062 102.351562 372.4375 103.617188 C 373.832031 104.882812 375.195312 106.179688 376.527344 107.511719 C 377.859375 108.84375 379.15625 110.207031 380.421875 111.601562 C 381.683594 112.996094 382.914062 114.421875 384.109375 115.878906 C 385.304688 117.332031 386.460938 118.816406 387.582031 120.328125 C 388.707031 121.84375 389.789062 123.382812 390.835938 124.945312 C 391.882812 126.511719 392.886719 128.101562 393.855469 129.71875 C 394.824219 131.332031 395.753906 132.972656 396.640625 134.632812 C 397.527344 136.292969 398.375 137.972656 399.179688 139.675781 C 399.984375 141.378906 400.746094 143.097656 401.46875 144.839844 C 402.1875 146.578125 402.867188 148.335938 403.5 150.109375 C 404.136719 151.882812 404.726562 153.667969 405.273438 155.46875 C 405.820312 157.273438 406.320312 159.085938 406.777344 160.914062 C 407.234375 162.738281 407.648438 164.578125 408.015625 166.421875 C 408.382812 168.269531 408.703125 170.125 408.980469 171.988281 C 409.257812 173.851562 409.488281 175.71875 409.671875 177.59375 C 409.855469 179.46875 409.996094 181.34375 410.089844 183.226562 C 410.179688 185.105469 410.226562 186.988281 410.226562 188.871094 C 410.226562 190.753906 410.179688 192.636719 410.085938 194.515625 C 409.996094 196.398438 409.855469 198.273438 409.671875 200.148438 C 409.488281 202.023438 409.257812 203.890625 408.980469 205.753906 C 408.703125 207.617188 408.382812 209.472656 408.015625 211.316406 C 407.648438 213.164062 407.234375 215 406.777344 216.828125 C 406.320312 218.65625 405.820312 220.46875 405.273438 222.269531 C 404.726562 224.074219 404.136719 225.859375 403.5 227.632812 C 402.867188 229.40625 402.1875 231.164062 401.46875 232.902344 C 400.746094 234.640625 399.984375 236.363281 399.179688 238.066406 C 398.375 239.769531 397.527344 241.449219 396.640625 243.109375 C 395.753906 244.769531 394.824219 246.410156 393.855469 248.023438 C 392.886719 249.640625 391.882812 251.230469 390.835938 252.796875 C 389.789062 254.359375 388.707031 255.898438 387.582031 257.414062 C 386.460938 258.925781 385.304688 260.410156 384.109375 261.863281 C 382.914062 263.320312 381.683594 264.746094 380.421875 266.140625 C 379.15625 267.535156 377.859375 268.898438 376.527344 270.230469 C 375.195312 271.5625 373.832031 272.859375 372.4375 274.125 C 371.039062 275.390625 369.613281 276.621094 368.160156 277.8125 C 366.703125 279.007812 365.21875 280.167969 363.707031 281.289062 C 362.195312 282.410156 360.65625 283.492188 359.089844 284.539062 C 357.523438 285.585938 355.933594 286.59375 354.320312 287.5625 C 352.703125 288.53125 351.066406 289.457031 349.40625 290.34375 C 347.746094 291.234375 346.0625 292.078125 344.359375 292.882812 C 342.660156 293.6875 340.9375 294.453125 339.199219 295.171875 C 337.457031 295.894531 335.703125 296.570312 333.929688 297.207031 C 332.15625 297.839844 330.367188 298.429688 328.566406 298.976562 C 326.765625 299.523438 324.949219 300.027344 323.125 300.484375 C 321.296875 300.941406 319.460938 301.351562 317.613281 301.71875 C 315.765625 302.085938 313.910156 302.410156 312.050781 302.6875 C 310.1875 302.960938 308.316406 303.191406 306.445312 303.378906 C 304.570312 303.5625 302.691406 303.699219 300.8125 303.792969 C 298.929688 303.886719 297.050781 303.929688 295.164062 303.929688 C 293.28125 303.929688 291.402344 303.886719 289.519531 303.792969 C 287.640625 303.699219 285.761719 303.5625 283.886719 303.378906 C 282.015625 303.191406 280.144531 302.960938 278.28125 302.6875 C 276.421875 302.410156 274.566406 302.085938 272.71875 301.71875 C 270.871094 301.351562 269.035156 300.941406 267.207031 300.484375 C 265.382812 300.027344 263.566406 299.523438 261.765625 298.976562 C 259.964844 298.429688 258.175781 297.839844 256.402344 297.207031 C 254.628906 296.570312 252.875 295.894531 251.132812 295.171875 C 249.394531 294.453125 247.671875 293.6875 245.972656 292.882812 C 244.269531 292.078125 242.585938 291.234375 240.925781 290.34375 C 239.265625 289.457031 237.628906 288.53125 236.011719 287.5625 C 234.398438 286.59375 232.808594 285.585938 231.242188 284.539062 C 229.675781 283.492188 228.136719 282.410156 226.625 281.289062 C 225.113281 280.167969 223.628906 279.007812 222.171875 277.8125 C 220.714844 276.621094 219.292969 275.390625 217.894531 274.125 C 216.5 272.859375 215.136719 271.5625 213.804688 270.230469 C 212.472656 268.898438 211.175781 267.535156 209.910156 266.140625 C 208.648438 264.746094 207.417969 263.320312 206.222656 261.863281 C 205.027344 260.410156 203.871094 258.925781 202.75 257.414062 C 201.625 255.898438 200.542969 254.359375 199.496094 252.796875 C 198.449219 251.230469 197.441406 249.640625 196.476562 248.023438 C 195.507812 246.410156 194.578125 244.769531 193.691406 243.109375 C 192.804688 241.449219 191.957031 239.769531 191.152344 238.066406 C 190.347656 236.363281 189.585938 234.640625 188.863281 232.902344 C 188.144531 231.164062 187.464844 229.40625 186.832031 227.632812 C 186.195312 225.859375 185.605469 224.074219 185.058594 222.269531 C 184.511719 220.46875 184.011719 218.65625 183.554688 216.828125 C 183.097656 215 182.683594 213.164062 182.316406 211.316406 C 181.949219 209.472656 181.628906 207.617188 181.351562 205.753906 C 181.074219 203.890625 180.84375 202.023438 180.660156 200.148438 C 180.476562 198.273438 180.335938 196.398438 180.242188 194.515625 C 180.152344 192.636719 180.105469 190.753906 180.105469 188.871094 C 180.105469 186.988281 180.152344 185.105469 180.242188 183.226562 C 180.335938 181.34375 180.476562 179.46875 180.660156 177.59375 C 180.84375 175.71875 181.074219 173.851562 181.351562 171.988281 C 181.628906 170.125 181.949219 168.269531 182.316406 166.421875 C 182.683594 164.578125 183.097656 162.738281 183.554688 160.914062 C 184.011719 159.085938 184.511719 157.273438 185.058594 155.46875 C 185.605469 153.667969 186.195312 151.882812 186.832031 150.109375 C 187.464844 148.335938 188.144531 146.578125 188.863281 144.839844 C 189.585938 143.097656 190.347656 141.378906 191.152344 139.675781 C 191.957031 137.972656 192.804688 136.292969 193.691406 134.632812 C 194.578125 132.972656 195.507812 131.332031 196.476562 129.71875 C 197.441406 128.101562 198.449219 126.511719 199.496094 124.945312 C 200.542969 123.382812 201.625 121.84375 202.75 120.328125 C 203.871094 118.816406 205.027344 117.332031 206.222656 115.878906 C 207.417969 114.421875 208.648438 112.996094 209.910156 111.601562 C 211.175781 110.207031 212.472656 108.84375 213.804688 107.511719 C 215.136719 106.179688 216.5 104.882812 217.894531 103.617188 C 219.292969 102.351562 220.714844 101.121094 222.171875 99.929688 C 223.628906 98.734375 225.113281 97.574219 226.625 96.453125 C 228.136719 95.332031 229.675781 94.246094 231.242188 93.203125 C 232.808594 92.15625 234.398438 91.148438 236.011719 90.179688 C 237.628906 89.210938 239.265625 88.285156 240.925781 87.398438 C 242.585938 86.507812 244.269531 85.664062 245.972656 84.855469 C 247.671875 84.050781 249.394531 83.289062 251.132812 82.570312 C 252.875 81.847656 254.628906 81.171875 256.402344 80.535156 C 258.175781 79.902344 259.964844 79.3125 261.765625 78.765625 C 263.566406 78.21875 265.382812 77.714844 267.207031 77.257812 C 269.035156 76.800781 270.871094 76.386719 272.71875 76.019531 C 274.566406 75.652344 276.421875 75.332031 278.28125 75.054688 C 280.144531 74.78125 282.015625 74.550781 283.886719 74.363281 C 285.761719 74.179688 287.640625 74.042969 289.519531 73.949219 C 291.402344 73.855469 293.28125 73.808594 295.164062 73.808594 Z M 295.164062 73.808594 " fill-opacity="1" fill-rule="nonzero"/></g><path fill="#e0e0e0" d="M 293.40625 113.890625 L 251.050781 183.332031 C 250.71875 183.875 249.949219 183.9375 249.535156 183.449219 C 245.808594 179.039062 231.917969 160.269531 249.105469 143.164062 C 264.789062 127.554688 284.769531 116.425781 292.171875 112.582031 C 293.011719 112.144531 293.898438 113.085938 293.40625 113.890625 Z M 293.40625 113.890625 " fill-opacity="1" fill-rule="nonzero"/><path fill="#e0e0e0" d="M 291.0625 265.085938 C 291.90625 265.675781 292.949219 264.667969 292.382812 263.808594 C 282.921875 249.472656 251.476562 201.769531 247.132812 194.609375 C 242.847656 187.546875 234.421875 175.808594 233.71875 165.765625 C 233.648438 164.761719 232.253906 164.558594 231.90625 165.5 C 231.339844 167.019531 230.742188 168.835938 230.179688 170.910156 C 223.109375 197.082031 233.378906 224.851562 255.679688 240.40625 Z M 291.0625 265.085938 " fill-opacity="1" fill-rule="nonzero"/><path fill="#e0e0e0" d="M 296.878906 263.851562 L 339.234375 194.410156 C 339.566406 193.863281 340.335938 193.804688 340.75 194.292969 C 344.476562 198.703125 358.367188 217.472656 341.179688 234.574219 C 325.496094 250.183594 305.519531 261.3125 298.113281 265.160156 C 297.273438 265.597656 296.390625 264.65625 296.878906 263.851562 Z M 296.878906 263.851562 " fill-opacity="1" fill-rule="nonzero"/><path fill="#e0e0e0" d="M 299.269531 112.648438 C 298.425781 112.058594 297.382812 113.0625 297.949219 113.921875 C 307.410156 128.257812 338.855469 175.960938 343.199219 183.125 C 347.484375 190.1875 355.910156 201.925781 356.613281 211.96875 C 356.683594 212.972656 358.078125 213.175781 358.425781 212.230469 C 358.992188 210.710938 359.59375 208.894531 360.152344 206.824219 C 367.222656 180.652344 356.953125 152.878906 334.652344 137.324219 Z M 299.269531 112.648438 " fill-opacity="1" fill-rule="nonzero"/><g clip-path="url(#140ab6e20f)"><path fill="#e0e0e0" d="M 183.859375 105.167969 L 183.859375 272.582031 L 191.140625 272.582031 L 191.140625 105.167969 Z M 183.859375 105.167969 " fill-opacity="1" fill-rule="nonzero"/></g></svg>