<svg xmlns="http://www.w3.org/2000/svg" xmlns:xlink="http://www.w3.org/1999/xlink" width="500" zoomAndPan="magnify" viewBox="0 0 375 374.999991" height="500" preserveAspectRatio="xMidYMid meet" version="1.0"><defs><clipPath id="b9e801c6a2"><path d="M 0 68.839844 L 208.117188 68.839844 L 208.117188 305.839844 L 0 305.839844 Z M 0 68.839844 " clip-rule="nonzero"/></clipPath><clipPath id="4928fdf81a"><path d="M 166.859375 69.167969 L 375 69.167969 L 375 306.167969 L 166.859375 306.167969 Z M 166.859375 69.167969 " clip-rule="nonzero"/></clipPath><clipPath id="63cfac9d1c"><path d="M 188.398438 70.066406 L 194.902344 70.066406 L 194.902344 305.519531 L 188.398438 305.519531 Z M 188.398438 70.066406 " clip-rule="nonzero"/></clipPath><clipPath id="f1e0180e54"><path d="M 187.5 69.167969 L 195.75 69.167969 L 195.75 306.167969 L 187.5 306.167969 Z M 187.5 69.167969 " clip-rule="nonzero"/></clipPath></defs><rect x="-37.5" width="450" fill="#ffffff" y="-37.499999" height="449.999989" fill-opacity="1"/><rect x="-37.5" width="450" fill="#000000" y="-37.499999" height="449.999989" fill-opacity="1"/><g clip-path="url(#b9e801c6a2)"><path fill="#000000" d="M 208.117188 187.339844 C 208.117188 189.28125 208.070312 191.21875 207.976562 193.15625 C 207.878906 195.09375 207.738281 197.027344 207.546875 198.957031 C 207.359375 200.886719 207.121094 202.808594 206.835938 204.730469 C 206.550781 206.648438 206.21875 208.558594 205.839844 210.460938 C 205.464844 212.363281 205.039062 214.253906 204.566406 216.132812 C 204.097656 218.015625 203.578125 219.882812 203.015625 221.738281 C 202.453125 223.597656 201.84375 225.4375 201.191406 227.261719 C 200.539062 229.089844 199.839844 230.898438 199.097656 232.6875 C 198.355469 234.480469 197.570312 236.253906 196.742188 238.007812 C 195.914062 239.757812 195.039062 241.492188 194.125 243.203125 C 193.210938 244.914062 192.257812 246.597656 191.257812 248.261719 C 190.261719 249.925781 189.226562 251.5625 188.148438 253.175781 C 187.070312 254.789062 185.953125 256.375 184.796875 257.933594 C 183.644531 259.488281 182.449219 261.019531 181.21875 262.515625 C 179.988281 264.015625 178.722656 265.484375 177.421875 266.921875 C 176.117188 268.359375 174.78125 269.761719 173.410156 271.132812 C 172.039062 272.503906 170.636719 273.839844 169.199219 275.144531 C 167.761719 276.445312 166.292969 277.710938 164.792969 278.941406 C 163.296875 280.171875 161.765625 281.367188 160.210938 282.519531 C 158.652344 283.675781 157.066406 284.792969 155.453125 285.871094 C 153.839844 286.949219 152.203125 287.984375 150.539062 288.980469 C 148.875 289.980469 147.191406 290.933594 145.480469 291.847656 C 143.769531 292.761719 142.035156 293.636719 140.285156 294.464844 C 138.53125 295.292969 136.757812 296.078125 134.964844 296.820312 C 133.175781 297.5625 131.367188 298.261719 129.539062 298.914062 C 127.714844 299.566406 125.875 300.175781 124.015625 300.738281 C 122.160156 301.300781 120.292969 301.820312 118.410156 302.289062 C 116.53125 302.761719 114.640625 303.1875 112.738281 303.5625 C 110.835938 303.941406 108.925781 304.273438 107.007812 304.558594 C 105.089844 304.84375 103.164062 305.082031 101.234375 305.269531 C 99.304688 305.460938 97.371094 305.601562 95.433594 305.699219 C 93.496094 305.792969 91.558594 305.839844 89.617188 305.839844 C 87.679688 305.839844 85.742188 305.792969 83.804688 305.699219 C 81.867188 305.601562 79.933594 305.460938 78.003906 305.269531 C 76.074219 305.082031 74.148438 304.84375 72.230469 304.558594 C 70.3125 304.273438 68.402344 303.941406 66.5 303.5625 C 64.597656 303.1875 62.707031 302.761719 60.824219 302.289062 C 58.945312 301.820312 57.074219 301.300781 55.21875 300.738281 C 53.363281 300.175781 51.523438 299.566406 49.695312 298.914062 C 47.871094 298.261719 46.0625 297.5625 44.269531 296.820312 C 42.480469 296.078125 40.707031 295.292969 38.953125 294.464844 C 37.199219 293.636719 35.46875 292.761719 33.757812 291.847656 C 32.046875 290.933594 30.359375 289.980469 28.699219 288.980469 C 27.035156 287.984375 25.394531 286.949219 23.785156 285.871094 C 22.171875 284.792969 20.585938 283.675781 19.027344 282.519531 C 17.46875 281.367188 15.941406 280.171875 14.441406 278.941406 C 12.945312 277.710938 11.476562 276.445312 10.039062 275.144531 C 8.601562 273.839844 7.199219 272.503906 5.828125 271.132812 C 4.457031 269.761719 3.117188 268.359375 1.816406 266.921875 C 0.511719 265.484375 -0.753906 264.015625 -1.984375 262.515625 C -3.214844 261.019531 -4.40625 259.488281 -5.5625 257.933594 C -6.714844 256.375 -7.832031 254.789062 -8.910156 253.175781 C -9.988281 251.5625 -11.023438 249.925781 -12.023438 248.261719 C -13.019531 246.597656 -13.976562 244.914062 -14.890625 243.203125 C -15.804688 241.492188 -16.675781 239.757812 -17.503906 238.007812 C -18.332031 236.253906 -19.117188 234.480469 -19.859375 232.6875 C -20.601562 230.898438 -21.300781 229.089844 -21.953125 227.261719 C -22.609375 225.4375 -23.214844 223.597656 -23.777344 221.738281 C -24.339844 219.882812 -24.859375 218.015625 -25.328125 216.132812 C -25.800781 214.253906 -26.226562 212.363281 -26.605469 210.460938 C -26.984375 208.558594 -27.3125 206.648438 -27.597656 204.730469 C -27.882812 202.808594 -28.121094 200.886719 -28.3125 198.957031 C -28.5 197.027344 -28.644531 195.09375 -28.738281 193.15625 C -28.832031 191.21875 -28.882812 189.28125 -28.882812 187.339844 C -28.882812 185.402344 -28.832031 183.464844 -28.738281 181.527344 C -28.644531 179.589844 -28.5 177.65625 -28.3125 175.726562 C -28.121094 173.796875 -27.882812 171.871094 -27.597656 169.953125 C -27.3125 168.035156 -26.984375 166.125 -26.605469 164.222656 C -26.226562 162.320312 -25.800781 160.429688 -25.328125 158.546875 C -24.859375 156.667969 -24.339844 154.796875 -23.777344 152.941406 C -23.214844 151.085938 -22.609375 149.246094 -21.953125 147.417969 C -21.300781 145.59375 -20.601562 143.785156 -19.859375 141.992188 C -19.117188 140.203125 -18.332031 138.429688 -17.503906 136.675781 C -16.675781 134.921875 -15.804688 133.191406 -14.890625 131.480469 C -13.976562 129.769531 -13.019531 128.082031 -12.023438 126.421875 C -11.023438 124.757812 -9.988281 123.117188 -8.910156 121.507812 C -7.832031 119.894531 -6.714844 118.308594 -5.5625 116.75 C -4.40625 115.191406 -3.214844 113.664062 -1.984375 112.164062 C -0.753906 110.667969 0.511719 109.199219 1.816406 107.761719 C 3.117188 106.324219 4.457031 104.921875 5.828125 103.550781 C 7.199219 102.179688 8.601562 100.839844 10.039062 99.539062 C 11.476562 98.234375 12.945312 96.96875 14.441406 95.738281 C 15.941406 94.507812 17.46875 93.316406 19.027344 92.160156 C 20.585938 91.007812 22.171875 89.890625 23.785156 88.8125 C 25.394531 87.734375 27.035156 86.699219 28.699219 85.699219 C 30.359375 84.703125 32.046875 83.746094 33.757812 82.832031 C 35.46875 81.917969 37.199219 81.046875 38.953125 80.21875 C 40.707031 79.390625 42.480469 78.605469 44.269531 77.863281 C 46.0625 77.121094 47.871094 76.421875 49.695312 75.769531 C 51.523438 75.113281 53.363281 74.507812 55.21875 73.945312 C 57.074219 73.382812 58.945312 72.863281 60.824219 72.394531 C 62.707031 71.921875 64.597656 71.496094 66.5 71.117188 C 68.402344 70.738281 70.3125 70.410156 72.230469 70.125 C 74.148438 69.839844 76.074219 69.601562 78.003906 69.410156 C 79.933594 69.222656 81.867188 69.078125 83.804688 68.984375 C 85.742188 68.890625 87.679688 68.839844 89.617188 68.839844 C 91.558594 68.839844 93.496094 68.890625 95.433594 68.984375 C 97.371094 69.078125 99.304688 69.222656 101.234375 69.410156 C 103.164062 69.601562 105.089844 69.839844 107.007812 70.125 C 108.925781 70.410156 110.835938 70.738281 112.738281 71.117188 C 114.640625 71.496094 116.53125 71.921875 118.410156 72.394531 C 120.292969 72.863281 122.160156 73.382812 124.015625 73.945312 C 125.875 74.507812 127.714844 75.113281 129.539062 75.769531 C 131.367188 76.421875 133.175781 77.121094 134.964844 77.863281 C 136.757812 78.605469 138.53125 79.390625 140.285156 80.21875 C 142.035156 81.046875 143.769531 81.917969 145.480469 82.832031 C 147.191406 83.746094 148.875 84.703125 150.539062 85.699219 C 152.203125 86.699219 153.839844 87.734375 155.453125 88.8125 C 157.066406 89.890625 158.652344 91.007812 160.210938 92.160156 C 161.765625 93.316406 163.296875 94.507812 164.792969 95.738281 C 166.292969 96.96875 167.761719 98.234375 169.199219 99.539062 C 170.636719 100.839844 172.039062 102.179688 173.410156 103.550781 C 174.78125 104.921875 176.117188 106.324219 177.421875 107.761719 C 178.722656 109.199219 179.988281 110.667969 181.21875 112.164062 C 182.449219 113.664062 183.644531 115.191406 184.796875 116.75 C 185.953125 118.308594 187.070312 119.894531 188.148438 121.507812 C 189.226562 123.117188 190.261719 124.757812 191.257812 126.421875 C 192.257812 128.082031 193.210938 129.769531 194.125 131.480469 C 195.039062 133.191406 195.914062 134.921875 196.742188 136.675781 C 197.570312 138.429688 198.355469 140.203125 199.097656 141.992188 C 199.839844 143.785156 200.539062 145.59375 201.191406 147.417969 C 201.84375 149.246094 202.453125 151.085938 203.015625 152.941406 C 203.578125 154.796875 204.097656 156.667969 204.566406 158.546875 C 205.039062 160.429688 205.464844 162.320312 205.839844 164.222656 C 206.21875 166.125 206.550781 168.035156 206.835938 169.953125 C 207.121094 171.871094 207.359375 173.796875 207.546875 175.726562 C 207.738281 177.65625 207.878906 179.589844 207.976562 181.527344 C 208.070312 183.464844 208.117188 185.402344 208.117188 187.339844 Z M 208.117188 187.339844 " fill-opacity="1" fill-rule="nonzero"/></g><path fill="#ffffff" d="M 163.453125 166.027344 L 143.453125 166.027344 L 131.34375 188.542969 C 131.035156 189.101562 130.585938 189.507812 129.996094 189.761719 L 129.8125 189.835938 C 129.539062 189.941406 129.257812 190 128.96875 190.015625 L 128.847656 190.03125 L 55.34375 190.03125 L 65.378906 207.492188 L 115.816406 207.417969 L 116.289062 207.472656 C 116.515625 207.511719 116.730469 207.574219 116.941406 207.667969 C 117.152344 207.757812 117.347656 207.875 117.53125 208.011719 C 117.710938 208.152344 117.875 208.308594 118.019531 208.488281 C 118.164062 208.664062 118.285156 208.855469 118.382812 209.0625 C 118.480469 209.269531 118.550781 209.488281 118.597656 209.710938 C 118.644531 209.933594 118.664062 210.160156 118.65625 210.390625 C 118.648438 210.617188 118.613281 210.84375 118.550781 211.0625 C 118.488281 211.285156 118.402344 211.492188 118.289062 211.691406 L 118.289062 211.6875 L 88.691406 265.097656 L 98.371094 265.097656 L 100.128906 265.105469 L 107.742188 265.105469 C 107.933594 265.105469 108.519531 265.105469 108.972656 264.292969 Z M 110.976562 213.152344 L 91.425781 213.175781 L 74.058594 244.621094 C 73.746094 245.191406 73.8125 245.777344 73.960938 246.011719 L 78.835938 254.085938 L 80.125 256.21875 L 81.382812 258.308594 L 83.773438 262.261719 Z M 35.804688 214.375 L 15.554688 214.375 L 22.289062 225.519531 L 25.449219 230.757812 C 25.71875 231.199219 26.300781 231.542969 26.785156 231.542969 L 45.417969 231.542969 Z M 50.5 193.015625 L 40.699219 211.476562 L 50.425781 228.839844 L 60.328125 210.117188 L 50.5 193.007812 Z M 90.605469 109.574219 L 71.324219 109.574219 C 71.066406 109.605469 70.613281 109.738281 70.257812 110.390625 L 70.058594 110.753906 C 66.75 116.707031 24.214844 193.429688 15.785156 208.664062 L 35.746094 208.664062 L 47.863281 185.832031 C 48.105469 185.375 48.445312 185.015625 48.886719 184.746094 C 49.328125 184.476562 49.804688 184.339844 50.320312 184.335938 C 50.351562 184.328125 50.386719 184.320312 50.417969 184.320312 L 123.589844 184.320312 C 122.265625 182.015625 120.953125 179.707031 119.644531 177.394531 C 117.578125 173.757812 115.148438 169.46875 113.84375 167.203125 L 64.683594 167.277344 L 63.394531 167.277344 C 63.175781 167.273438 62.960938 167.246094 62.75 167.1875 L 62.578125 167.136719 C 62.417969 167.089844 62.265625 167.027344 62.121094 166.953125 L 62.015625 166.90625 L 61.925781 166.832031 C 61.84375 166.789062 61.765625 166.730469 61.683594 166.671875 C 61.535156 166.5625 61.40625 166.4375 61.289062 166.300781 L 61.195312 166.1875 L 61.113281 166.078125 C 61.058594 166.007812 61.007812 165.933594 60.964844 165.855469 C 60.863281 165.699219 60.789062 165.53125 60.742188 165.351562 L 60.699219 165.21875 L 60.660156 165.085938 C 60.636719 164.996094 60.625 164.910156 60.617188 164.820312 C 60.597656 164.714844 60.589844 164.613281 60.585938 164.507812 L 60.570312 164.402344 L 60.585938 164.261719 C 60.585938 164.160156 60.59375 164.046875 60.617188 163.945312 L 60.675781 163.6875 C 60.722656 163.496094 60.789062 163.3125 60.875 163.136719 L 60.933594 162.988281 Z M 128.796875 145.828125 C 126.457031 150.117188 120.875 160.417969 118.746094 164.300781 C 119.867188 166.25 121.859375 169.742188 124.578125 174.535156 C 125.953125 176.964844 127.421875 179.558594 128.605469 181.625 L 138.53125 163.195312 Z M 95.492188 112.488281 L 68.257812 161.515625 L 87.8125 161.492188 L 105.164062 130.0625 C 105.476562 129.492188 105.410156 128.90625 105.261719 128.667969 L 100.417969 120.640625 L 99.128906 118.507812 L 97.277344 115.425781 L 95.5 112.488281 Z M 133.8125 143.140625 L 143.425781 160.308594 L 163.679688 160.308594 L 157.414062 149.941406 L 153.785156 143.933594 C 153.472656 143.441406 153.023438 143.179688 152.4375 143.148438 Z M 133.8125 143.140625 " fill-opacity="1" fill-rule="nonzero"/><g clip-path="url(#4928fdf81a)"><path fill="#000000" d="M 285.351562 69.167969 C 287.292969 69.167969 289.230469 69.214844 291.167969 69.308594 C 293.105469 69.402344 295.039062 69.546875 296.96875 69.738281 C 298.898438 69.925781 300.820312 70.164062 302.738281 70.449219 C 304.65625 70.734375 306.566406 71.066406 308.46875 71.441406 C 310.371094 71.820312 312.265625 72.246094 314.144531 72.71875 C 316.027344 73.1875 317.894531 73.707031 319.75 74.269531 C 321.605469 74.832031 323.445312 75.441406 325.273438 76.09375 C 327.097656 76.746094 328.90625 77.445312 330.699219 78.1875 C 332.492188 78.929688 334.261719 79.714844 336.015625 80.542969 C 337.769531 81.371094 339.5 82.242188 341.210938 83.15625 C 342.921875 84.070312 344.609375 85.027344 346.269531 86.023438 C 347.933594 87.019531 349.574219 88.058594 351.183594 89.136719 C 352.796875 90.214844 354.382812 91.328125 355.941406 92.484375 C 357.496094 93.640625 359.027344 94.832031 360.523438 96.0625 C 362.023438 97.292969 363.492188 98.558594 364.929688 99.863281 C 366.367188 101.164062 367.769531 102.5 369.140625 103.871094 C 370.511719 105.242188 371.847656 106.648438 373.152344 108.085938 C 374.453125 109.519531 375.71875 110.988281 376.949219 112.488281 C 378.179688 113.988281 379.375 115.515625 380.527344 117.074219 C 381.683594 118.632812 382.800781 120.214844 383.878906 121.828125 C 384.953125 123.441406 385.992188 125.078125 386.988281 126.742188 C 387.984375 128.40625 388.941406 130.09375 389.855469 131.800781 C 390.769531 133.511719 391.640625 135.246094 392.46875 136.996094 C 393.300781 138.75 394.085938 140.523438 394.828125 142.316406 C 395.570312 144.105469 396.265625 145.914062 396.921875 147.742188 C 397.574219 149.566406 398.183594 151.40625 398.746094 153.261719 C 399.308594 155.117188 399.824219 156.988281 400.296875 158.867188 C 400.765625 160.75 401.191406 162.640625 401.570312 164.542969 C 401.949219 166.445312 402.28125 168.355469 402.566406 170.273438 C 402.847656 172.191406 403.085938 174.117188 403.277344 176.046875 C 403.46875 177.976562 403.609375 179.910156 403.703125 181.847656 C 403.800781 183.78125 403.847656 185.722656 403.847656 187.660156 C 403.847656 189.597656 403.800781 191.539062 403.703125 193.472656 C 403.609375 195.410156 403.46875 197.34375 403.277344 199.273438 C 403.085938 201.203125 402.847656 203.128906 402.566406 205.046875 C 402.28125 206.964844 401.949219 208.875 401.570312 210.777344 C 401.191406 212.679688 400.765625 214.570312 400.296875 216.453125 C 399.824219 218.332031 399.308594 220.203125 398.746094 222.058594 C 398.183594 223.914062 397.574219 225.753906 396.921875 227.578125 C 396.265625 229.40625 395.570312 231.214844 394.828125 233.007812 C 394.085938 234.796875 393.300781 236.570312 392.46875 238.324219 C 391.640625 240.074219 390.769531 241.808594 389.855469 243.519531 C 388.941406 245.226562 387.984375 246.914062 386.988281 248.578125 C 385.992188 250.242188 384.953125 251.878906 383.878906 253.492188 C 382.800781 255.105469 381.683594 256.691406 380.527344 258.246094 C 379.375 259.804688 378.179688 261.332031 376.949219 262.832031 C 375.71875 264.332031 374.453125 265.800781 373.152344 267.234375 C 371.847656 268.671875 370.511719 270.078125 369.140625 271.449219 C 367.769531 272.820312 366.367188 274.15625 364.929688 275.457031 C 363.492188 276.761719 362.023438 278.027344 360.523438 279.257812 C 359.027344 280.488281 357.496094 281.679688 355.941406 282.835938 C 354.382812 283.992188 352.796875 285.105469 351.183594 286.183594 C 349.574219 287.261719 347.933594 288.300781 346.269531 289.296875 C 344.609375 290.292969 342.921875 291.25 341.210938 292.164062 C 339.5 293.078125 337.769531 293.949219 336.015625 294.777344 C 334.261719 295.605469 332.492188 296.390625 330.699219 297.132812 C 328.90625 297.875 327.097656 298.574219 325.273438 299.226562 C 323.445312 299.882812 321.605469 300.488281 319.75 301.050781 C 317.894531 301.613281 316.027344 302.132812 314.144531 302.601562 C 312.265625 303.074219 310.371094 303.5 308.46875 303.878906 C 306.566406 304.253906 304.65625 304.585938 302.738281 304.871094 C 300.820312 305.15625 298.898438 305.394531 296.96875 305.582031 C 295.039062 305.773438 293.105469 305.917969 291.167969 306.011719 C 289.230469 306.105469 287.292969 306.15625 285.351562 306.15625 C 283.414062 306.15625 281.476562 306.105469 279.539062 306.011719 C 277.601562 305.917969 275.667969 305.773438 273.738281 305.582031 C 271.808594 305.394531 269.886719 305.15625 267.964844 304.871094 C 266.046875 304.585938 264.136719 304.253906 262.234375 303.878906 C 260.335938 303.5 258.441406 303.074219 256.5625 302.601562 C 254.679688 302.132812 252.8125 301.613281 250.957031 301.050781 C 249.101562 300.488281 247.257812 299.882812 245.433594 299.226562 C 243.609375 298.574219 241.800781 297.875 240.007812 297.132812 C 238.214844 296.390625 236.445312 295.605469 234.691406 294.777344 C 232.9375 293.949219 231.207031 293.078125 229.496094 292.164062 C 227.785156 291.25 226.097656 290.292969 224.433594 289.296875 C 222.773438 288.300781 221.132812 287.261719 219.519531 286.183594 C 217.910156 285.105469 216.324219 283.992188 214.765625 282.835938 C 213.207031 281.679688 211.679688 280.488281 210.179688 279.257812 C 208.683594 278.027344 207.214844 276.761719 205.777344 275.457031 C 204.339844 274.15625 202.9375 272.820312 201.566406 271.449219 C 200.195312 270.078125 198.855469 268.671875 197.554688 267.234375 C 196.253906 265.800781 194.984375 264.332031 193.757812 262.832031 C 192.527344 261.332031 191.332031 259.804688 190.179688 258.246094 C 189.023438 256.691406 187.90625 255.105469 186.828125 253.492188 C 185.75 251.878906 184.714844 250.242188 183.71875 248.578125 C 182.71875 246.914062 181.765625 245.226562 180.851562 243.519531 C 179.9375 241.808594 179.066406 240.074219 178.234375 238.324219 C 177.40625 236.570312 176.621094 234.796875 175.878906 233.007812 C 175.136719 231.214844 174.4375 229.40625 173.785156 227.578125 C 173.132812 225.753906 172.523438 223.914062 171.960938 222.058594 C 171.398438 220.203125 170.882812 218.332031 170.410156 216.453125 C 169.9375 214.570312 169.515625 212.679688 169.136719 210.777344 C 168.757812 208.875 168.425781 206.964844 168.140625 205.046875 C 167.855469 203.128906 167.621094 201.203125 167.429688 199.273438 C 167.238281 197.34375 167.097656 195.410156 167 193.472656 C 166.90625 191.539062 166.859375 189.597656 166.859375 187.660156 C 166.859375 185.722656 166.90625 183.78125 167 181.847656 C 167.097656 179.910156 167.238281 177.976562 167.429688 176.046875 C 167.621094 174.117188 167.855469 172.191406 168.140625 170.273438 C 168.425781 168.355469 168.757812 166.445312 169.136719 164.542969 C 169.515625 162.640625 169.9375 160.75 170.410156 158.867188 C 170.882812 156.988281 171.398438 155.117188 171.960938 153.261719 C 172.523438 151.40625 173.132812 149.566406 173.785156 147.742188 C 174.4375 145.914062 175.136719 144.105469 175.878906 142.316406 C 176.621094 140.523438 177.40625 138.75 178.234375 136.996094 C 179.066406 135.246094 179.9375 133.511719 180.851562 131.800781 C 181.765625 130.09375 182.71875 128.40625 183.71875 126.742188 C 184.714844 125.078125 185.75 123.441406 186.828125 121.828125 C 187.90625 120.214844 189.023438 118.632812 190.179688 117.074219 C 191.332031 115.515625 192.527344 113.988281 193.757812 112.488281 C 194.984375 110.988281 196.253906 109.519531 197.554688 108.085938 C 198.855469 106.648438 200.195312 105.242188 201.566406 103.871094 C 202.9375 102.5 204.339844 101.164062 205.777344 99.863281 C 207.214844 98.558594 208.683594 97.292969 210.179688 96.0625 C 211.679688 94.832031 213.207031 93.640625 214.765625 92.484375 C 216.324219 91.328125 217.910156 90.214844 219.519531 89.136719 C 221.132812 88.058594 222.773438 87.019531 224.433594 86.023438 C 226.097656 85.027344 227.785156 84.070312 229.496094 83.15625 C 231.207031 82.242188 232.9375 81.371094 234.691406 80.542969 C 236.445312 79.714844 238.214844 78.929688 240.007812 78.1875 C 241.800781 77.445312 243.609375 76.746094 245.433594 76.09375 C 247.257812 75.441406 249.101562 74.832031 250.957031 74.269531 C 252.8125 73.707031 254.679688 73.1875 256.5625 72.71875 C 258.441406 72.246094 260.335938 71.820312 262.234375 71.441406 C 264.136719 71.066406 266.046875 70.734375 267.964844 70.449219 C 269.886719 70.164062 271.808594 69.925781 273.738281 69.738281 C 275.667969 69.546875 277.601562 69.402344 279.539062 69.308594 C 281.476562 69.214844 283.414062 69.167969 285.351562 69.167969 Z M 285.351562 69.167969 " fill-opacity="1" fill-rule="nonzero"/></g><path fill="#f6f6f6" d="M 283.539062 110.441406 L 239.921875 181.957031 C 239.582031 182.515625 238.785156 182.578125 238.363281 182.078125 C 234.523438 177.535156 220.214844 158.207031 237.917969 140.589844 C 254.070312 124.515625 274.644531 113.054688 282.269531 109.09375 C 283.136719 108.644531 284.046875 109.613281 283.539062 110.441406 Z M 283.539062 110.441406 " fill-opacity="1" fill-rule="nonzero"/><path fill="#f6f6f6" d="M 281.128906 266.148438 C 282 266.753906 283.070312 265.71875 282.488281 264.835938 C 272.746094 250.070312 240.359375 200.945312 235.886719 193.570312 C 231.472656 186.296875 222.792969 174.207031 222.070312 163.863281 C 222 162.832031 220.566406 162.621094 220.207031 163.59375 C 219.625 165.160156 219.003906 167.027344 218.429688 169.164062 C 211.148438 196.113281 221.722656 224.714844 244.6875 240.734375 Z M 281.128906 266.148438 " fill-opacity="1" fill-rule="nonzero"/><path fill="#f6f6f6" d="M 287.117188 264.875 L 330.734375 193.363281 C 331.078125 192.804688 331.871094 192.742188 332.296875 193.242188 C 336.136719 197.785156 350.441406 217.113281 332.742188 234.730469 C 316.589844 250.804688 296.015625 262.265625 288.390625 266.226562 C 287.523438 266.675781 286.613281 265.707031 287.117188 264.875 Z M 287.117188 264.875 " fill-opacity="1" fill-rule="nonzero"/><path fill="#f6f6f6" d="M 289.578125 109.160156 C 288.707031 108.554688 287.636719 109.589844 288.21875 110.472656 C 297.960938 125.238281 330.347656 174.367188 334.820312 181.742188 C 339.234375 189.015625 347.910156 201.105469 348.636719 211.445312 C 348.707031 212.480469 350.140625 212.6875 350.5 211.71875 C 351.082031 210.152344 351.703125 208.28125 352.277344 206.148438 C 359.558594 179.195312 348.984375 150.59375 326.019531 134.578125 Z M 289.578125 109.160156 " fill-opacity="1" fill-rule="nonzero"/><g clip-path="url(#63cfac9d1c)"><path fill="#ffffff" d="M 191.648438 306.386719 C 189.367188 306.386719 187.515625 304.539062 187.515625 302.257812 L 187.515625 73.296875 C 187.515625 71.015625 189.367188 69.167969 191.648438 69.167969 C 193.929688 69.167969 195.78125 71.015625 195.78125 73.296875 L 195.78125 302.257812 C 195.78125 304.539062 193.929688 306.386719 191.648438 306.386719 Z M 191.648438 306.386719 " fill-opacity="1" fill-rule="nonzero"/></g><g clip-path="url(#f1e0180e54)"><path stroke-linecap="butt" transform="matrix(0.75, 0, 0, 0.75, 187.499992, 69.166116)" fill="none" stroke-linejoin="miter" d="M 0.0000104167 0.00246999 L 0.0000104167 316.330616 L 11.062511 316.330616 L 11.062511 0.00246999 L 0.0000104167 0.00246999 " stroke="#000000" stroke-width="8" stroke-opacity="1" stroke-miterlimit="4"/></g></svg>