<svg xmlns="http://www.w3.org/2000/svg" xmlns:xlink="http://www.w3.org/1999/xlink" width="500" zoomAndPan="magnify" viewBox="0 0 375 374.999991" height="500" preserveAspectRatio="xMidYMid meet" version="1.0"><defs><clipPath id="d7898a3099"><path d="M 8.527344 91.761719 L 199.777344 91.761719 L 199.777344 283.011719 L 8.527344 283.011719 Z M 8.527344 91.761719 " clip-rule="nonzero"/></clipPath><clipPath id="8de4a8b96a"><path d="M 175.207031 91.761719 L 366.457031 91.761719 L 366.457031 283.011719 L 175.207031 283.011719 Z M 175.207031 91.761719 " clip-rule="nonzero"/></clipPath></defs><g clip-path="url(#d7898a3099)"><path fill="#000000" d="M 200 187.5 C 200 189.066406 199.960938 190.632812 199.886719 192.199219 C 199.808594 193.761719 199.691406 195.324219 199.539062 196.882812 C 199.386719 198.441406 199.195312 199.996094 198.964844 201.546875 C 198.734375 203.097656 198.46875 204.640625 198.160156 206.175781 C 197.855469 207.714844 197.511719 209.242188 197.132812 210.761719 C 196.75 212.28125 196.332031 213.792969 195.878906 215.289062 C 195.421875 216.789062 194.933594 218.277344 194.40625 219.753906 C 193.875 221.226562 193.3125 222.6875 192.714844 224.136719 C 192.113281 225.585938 191.480469 227.015625 190.808594 228.433594 C 190.140625 229.847656 189.433594 231.246094 188.695312 232.628906 C 187.957031 234.011719 187.1875 235.375 186.378906 236.71875 C 185.574219 238.0625 184.738281 239.386719 183.867188 240.6875 C 182.996094 241.992188 182.09375 243.269531 181.160156 244.53125 C 180.226562 245.789062 179.261719 247.023438 178.269531 248.234375 C 177.277344 249.445312 176.253906 250.632812 175.199219 251.792969 C 174.148438 252.953125 173.066406 254.085938 171.960938 255.195312 C 170.851562 256.304688 169.71875 257.382812 168.558594 258.4375 C 167.394531 259.488281 166.210938 260.511719 165 261.503906 C 163.789062 262.5 162.554688 263.460938 161.292969 264.394531 C 160.035156 265.328125 158.753906 266.230469 157.453125 267.101562 C 156.148438 267.972656 154.828125 268.808594 153.484375 269.617188 C 152.140625 270.421875 150.777344 271.191406 149.394531 271.933594 C 148.011719 272.671875 146.613281 273.375 145.195312 274.042969 C 143.78125 274.714844 142.347656 275.347656 140.902344 275.949219 C 139.453125 276.546875 137.992188 277.113281 136.515625 277.640625 C 135.042969 278.167969 133.554688 278.660156 132.054688 279.113281 C 130.554688 279.570312 129.046875 279.988281 127.527344 280.367188 C 126.007812 280.746094 124.476562 281.089844 122.941406 281.398438 C 121.40625 281.703125 119.863281 281.96875 118.3125 282.199219 C 116.761719 282.429688 115.207031 282.621094 113.648438 282.773438 C 112.089844 282.929688 110.527344 283.042969 108.960938 283.121094 C 107.398438 283.199219 105.832031 283.234375 104.265625 283.234375 C 102.699219 283.234375 101.132812 283.199219 99.566406 283.121094 C 98.003906 283.042969 96.441406 282.929688 94.878906 282.773438 C 93.320312 282.621094 91.765625 282.429688 90.21875 282.199219 C 88.667969 281.96875 87.125 281.703125 85.585938 281.398438 C 84.050781 281.089844 82.523438 280.746094 81.003906 280.367188 C 79.484375 279.988281 77.972656 279.570312 76.472656 279.113281 C 74.972656 278.660156 73.488281 278.167969 72.011719 277.640625 C 70.535156 277.113281 69.074219 276.546875 67.628906 275.949219 C 66.179688 275.347656 64.75 274.714844 63.332031 274.042969 C 61.914062 273.375 60.515625 272.671875 59.132812 271.933594 C 57.753906 271.191406 56.390625 270.421875 55.046875 269.617188 C 53.703125 268.808594 52.378906 267.972656 51.078125 267.101562 C 49.773438 266.230469 48.492188 265.328125 47.234375 264.394531 C 45.976562 263.460938 44.742188 262.5 43.53125 261.503906 C 42.320312 260.511719 41.132812 259.488281 39.972656 258.4375 C 38.8125 257.382812 37.675781 256.304688 36.570312 255.195312 C 35.460938 254.085938 34.378906 252.953125 33.328125 251.792969 C 32.277344 250.632812 31.253906 249.445312 30.257812 248.234375 C 29.265625 247.023438 28.300781 245.789062 27.367188 244.53125 C 26.433594 243.269531 25.53125 241.992188 24.664062 240.6875 C 23.792969 239.386719 22.953125 238.0625 22.148438 236.71875 C 21.34375 235.375 20.570312 234.011719 19.832031 232.628906 C 19.09375 231.246094 18.390625 229.847656 17.71875 228.433594 C 17.050781 227.015625 16.414062 225.585938 15.816406 224.136719 C 15.214844 222.6875 14.652344 221.226562 14.125 219.753906 C 13.597656 218.277344 13.105469 216.789062 12.652344 215.289062 C 12.195312 213.792969 11.777344 212.28125 11.398438 210.761719 C 11.015625 209.242188 10.671875 207.714844 10.367188 206.175781 C 10.0625 204.640625 9.792969 203.097656 9.5625 201.546875 C 9.335938 199.996094 9.144531 198.441406 8.988281 196.882812 C 8.835938 195.324219 8.71875 193.761719 8.644531 192.199219 C 8.566406 190.632812 8.527344 189.066406 8.527344 187.5 C 8.527344 185.933594 8.566406 184.367188 8.644531 182.800781 C 8.71875 181.238281 8.835938 179.675781 8.988281 178.117188 C 9.144531 176.558594 9.335938 175.003906 9.5625 173.453125 C 9.792969 171.902344 10.0625 170.359375 10.367188 168.824219 C 10.671875 167.285156 11.015625 165.757812 11.398438 164.238281 C 11.777344 162.71875 12.195312 161.207031 12.652344 159.710938 C 13.105469 158.210938 13.597656 156.722656 14.125 155.246094 C 14.652344 153.773438 15.214844 152.3125 15.816406 150.863281 C 16.414062 149.414062 17.050781 147.984375 17.71875 146.566406 C 18.390625 145.152344 19.09375 143.75 19.832031 142.371094 C 20.570312 140.988281 21.34375 139.625 22.148438 138.28125 C 22.953125 136.9375 23.792969 135.613281 24.664062 134.3125 C 25.53125 133.007812 26.433594 131.726562 27.367188 130.46875 C 28.300781 129.210938 29.265625 127.976562 30.257812 126.765625 C 31.253906 125.554688 32.277344 124.367188 33.328125 123.207031 C 34.378906 122.046875 35.460938 120.910156 36.570312 119.804688 C 37.675781 118.695312 38.8125 117.617188 39.972656 116.5625 C 41.132812 115.511719 42.320312 114.488281 43.53125 113.496094 C 44.742188 112.5 45.976562 111.535156 47.234375 110.605469 C 48.492188 109.671875 49.773438 108.769531 51.078125 107.898438 C 52.378906 107.027344 53.703125 106.191406 55.046875 105.382812 C 56.390625 104.578125 57.753906 103.804688 59.132812 103.066406 C 60.515625 102.328125 61.914062 101.625 63.332031 100.957031 C 64.75 100.285156 66.179688 99.652344 67.628906 99.050781 C 69.074219 98.453125 70.535156 97.886719 72.011719 97.359375 C 73.488281 96.832031 74.972656 96.339844 76.472656 95.886719 C 77.972656 95.429688 79.484375 95.011719 81.003906 94.632812 C 82.523438 94.25 84.050781 93.910156 85.585938 93.601562 C 87.125 93.296875 88.667969 93.03125 90.21875 92.800781 C 91.765625 92.570312 93.320312 92.378906 94.878906 92.222656 C 96.441406 92.070312 98.003906 91.957031 99.566406 91.878906 C 101.132812 91.800781 102.699219 91.761719 104.265625 91.761719 C 105.832031 91.761719 107.398438 91.800781 108.960938 91.878906 C 110.527344 91.957031 112.089844 92.070312 113.648438 92.222656 C 115.207031 92.378906 116.761719 92.570312 118.3125 92.800781 C 119.863281 93.03125 121.40625 93.296875 122.941406 93.601562 C 124.476562 93.910156 126.007812 94.25 127.527344 94.632812 C 129.046875 95.011719 130.554688 95.429688 132.054688 95.886719 C 133.554688 96.339844 135.042969 96.832031 136.515625 97.359375 C 137.992188 97.886719 139.453125 98.453125 140.902344 99.050781 C 142.347656 99.652344 143.78125 100.285156 145.195312 100.957031 C 146.613281 101.625 148.011719 102.328125 149.394531 103.066406 C 150.777344 103.804688 152.140625 104.578125 153.484375 105.382812 C 154.828125 106.191406 156.148438 107.027344 157.453125 107.898438 C 158.753906 108.769531 160.035156 109.671875 161.292969 110.605469 C 162.554688 111.535156 163.789062 112.5 165 113.496094 C 166.210938 114.488281 167.394531 115.511719 168.558594 116.5625 C 169.71875 117.617188 170.851562 118.695312 171.960938 119.804688 C 173.066406 120.910156 174.148438 122.046875 175.199219 123.207031 C 176.253906 124.367188 177.277344 125.554688 178.269531 126.765625 C 179.261719 127.976562 180.226562 129.210938 181.160156 130.46875 C 182.09375 131.726562 182.996094 133.007812 183.867188 134.3125 C 184.738281 135.613281 185.574219 136.9375 186.378906 138.28125 C 187.1875 139.625 187.957031 140.988281 188.695312 142.371094 C 189.433594 143.75 190.140625 145.152344 190.808594 146.566406 C 191.480469 147.984375 192.113281 149.414062 192.714844 150.863281 C 193.3125 152.3125 193.875 153.773438 194.40625 155.246094 C 194.933594 156.722656 195.421875 158.210938 195.878906 159.710938 C 196.332031 161.207031 196.75 162.71875 197.132812 164.238281 C 197.511719 165.757812 197.855469 167.285156 198.160156 168.824219 C 198.46875 170.359375 198.734375 171.902344 198.964844 173.453125 C 199.195312 175.003906 199.386719 176.558594 199.539062 178.117188 C 199.691406 179.675781 199.808594 181.238281 199.886719 182.800781 C 199.960938 184.367188 200 185.933594 200 187.5 Z M 200 187.5 " fill-opacity="1" fill-rule="nonzero"/></g><path fill="#e0e0e0" d="M 163.914062 170.277344 L 147.757812 170.277344 L 137.976562 188.46875 C 137.726562 188.921875 137.363281 189.25 136.886719 189.457031 L 136.738281 189.515625 C 136.515625 189.597656 136.289062 189.648438 136.054688 189.660156 L 135.960938 189.671875 L 76.574219 189.671875 L 84.679688 203.78125 L 125.429688 203.722656 L 125.8125 203.761719 C 125.992188 203.792969 126.167969 203.847656 126.339844 203.921875 C 126.507812 203.996094 126.667969 204.089844 126.8125 204.199219 C 126.960938 204.3125 127.09375 204.441406 127.210938 204.582031 C 127.324219 204.726562 127.421875 204.882812 127.503906 205.050781 C 127.582031 205.21875 127.640625 205.390625 127.675781 205.570312 C 127.714844 205.753906 127.730469 205.9375 127.722656 206.121094 C 127.714844 206.304688 127.6875 206.488281 127.636719 206.664062 C 127.589844 206.84375 127.515625 207.011719 127.425781 207.171875 L 127.425781 207.167969 L 103.515625 250.320312 L 111.335938 250.320312 L 112.753906 250.328125 L 118.90625 250.328125 C 119.0625 250.328125 119.535156 250.328125 119.898438 249.667969 Z M 121.519531 208.351562 L 105.722656 208.371094 L 91.691406 233.777344 C 91.441406 234.238281 91.496094 234.710938 91.617188 234.902344 L 95.550781 241.421875 L 96.59375 243.148438 L 97.609375 244.832031 L 99.542969 248.027344 Z M 60.789062 209.339844 L 44.429688 209.339844 L 49.867188 218.34375 L 52.421875 222.574219 C 52.636719 222.933594 53.113281 223.210938 53.5 223.210938 L 68.554688 223.210938 Z M 72.660156 192.082031 L 64.742188 207 L 72.601562 221.027344 L 80.601562 205.898438 L 72.660156 192.078125 Z M 105.058594 124.671875 L 89.484375 124.671875 C 89.277344 124.695312 88.910156 124.804688 88.625 125.332031 L 88.460938 125.625 C 85.789062 130.433594 51.425781 192.417969 44.613281 204.726562 L 60.742188 204.726562 L 70.53125 186.277344 C 70.726562 185.910156 71 185.621094 71.359375 185.402344 C 71.714844 185.1875 72.097656 185.074219 72.515625 185.070312 C 72.542969 185.0625 72.566406 185.058594 72.59375 185.058594 L 131.710938 185.058594 C 130.640625 183.199219 129.578125 181.332031 128.523438 179.464844 C 126.851562 176.527344 124.890625 173.0625 123.835938 171.230469 L 84.117188 171.289062 L 83.078125 171.289062 C 82.898438 171.289062 82.726562 171.265625 82.554688 171.21875 L 82.417969 171.175781 C 82.289062 171.136719 82.167969 171.089844 82.046875 171.027344 L 81.964844 170.992188 L 81.890625 170.929688 C 81.828125 170.894531 81.761719 170.847656 81.695312 170.800781 C 81.578125 170.710938 81.472656 170.613281 81.378906 170.5 L 81.300781 170.410156 L 81.234375 170.320312 C 81.191406 170.265625 81.148438 170.203125 81.113281 170.140625 C 81.035156 170.015625 80.972656 169.878906 80.933594 169.734375 L 80.898438 169.628906 L 80.867188 169.519531 C 80.851562 169.449219 80.839844 169.375 80.832031 169.304688 C 80.820312 169.222656 80.8125 169.136719 80.808594 169.050781 L 80.796875 168.96875 L 80.808594 168.855469 C 80.808594 168.769531 80.816406 168.683594 80.832031 168.597656 L 80.878906 168.386719 C 80.921875 168.234375 80.972656 168.089844 81.042969 167.945312 L 81.089844 167.824219 Z M 135.917969 153.960938 C 134.027344 157.425781 129.515625 165.75 127.796875 168.886719 C 128.699219 170.457031 130.3125 173.28125 132.507812 177.15625 C 133.621094 179.117188 134.804688 181.210938 135.761719 182.878906 L 143.78125 167.992188 Z M 109.007812 127.023438 L 87.007812 166.636719 L 102.804688 166.617188 L 116.824219 141.222656 C 117.074219 140.761719 117.019531 140.289062 116.902344 140.097656 L 112.988281 133.613281 L 111.949219 131.890625 L 110.453125 129.398438 L 109.015625 127.023438 Z M 139.96875 151.789062 L 147.734375 165.660156 L 164.101562 165.660156 L 159.039062 157.28125 L 156.105469 152.429688 C 155.851562 152.03125 155.488281 151.820312 155.015625 151.796875 Z M 139.96875 151.789062 " fill-opacity="1" fill-rule="nonzero"/><g clip-path="url(#8de4a8b96a)"><path fill="#000000" d="M 270.839844 91.761719 C 272.40625 91.761719 273.96875 91.800781 275.53125 91.878906 C 277.09375 91.957031 278.65625 92.070312 280.214844 92.222656 C 281.769531 92.378906 283.324219 92.570312 284.871094 92.796875 C 286.417969 93.027344 287.960938 93.296875 289.496094 93.601562 C 291.03125 93.90625 292.558594 94.25 294.074219 94.628906 C 295.59375 95.007812 297.101562 95.425781 298.601562 95.882812 C 300.097656 96.335938 301.582031 96.828125 303.054688 97.355469 C 304.53125 97.882812 305.988281 98.445312 307.4375 99.042969 C 308.882812 99.640625 310.3125 100.277344 311.726562 100.945312 C 313.140625 101.613281 314.539062 102.316406 315.917969 103.054688 C 317.300781 103.792969 318.660156 104.5625 320.003906 105.367188 C 321.347656 106.171875 322.667969 107.011719 323.96875 107.878906 C 325.269531 108.75 326.550781 109.652344 327.808594 110.582031 C 329.0625 111.515625 330.296875 112.476562 331.507812 113.472656 C 332.71875 114.464844 333.902344 115.484375 335.0625 116.535156 C 336.222656 117.585938 337.355469 118.667969 338.460938 119.773438 C 339.566406 120.878906 340.644531 122.011719 341.695312 123.171875 C 342.75 124.332031 343.769531 125.515625 344.761719 126.726562 C 345.757812 127.9375 346.71875 129.171875 347.652344 130.425781 C 348.582031 131.683594 349.484375 132.964844 350.355469 134.265625 C 351.222656 135.566406 352.058594 136.886719 352.863281 138.230469 C 353.667969 139.574219 354.441406 140.933594 355.179688 142.3125 C 355.917969 143.695312 356.621094 145.09375 357.289062 146.507812 C 357.957031 147.921875 358.59375 149.351562 359.191406 150.796875 C 359.789062 152.242188 360.351562 153.703125 360.878906 155.175781 C 361.40625 156.652344 361.898438 158.136719 362.351562 159.632812 C 362.808594 161.132812 363.222656 162.640625 363.605469 164.15625 C 363.984375 165.675781 364.328125 167.203125 364.632812 168.738281 C 364.9375 170.273438 365.207031 171.8125 365.433594 173.363281 C 365.664062 174.910156 365.855469 176.464844 366.011719 178.019531 C 366.164062 179.578125 366.277344 181.140625 366.355469 182.703125 C 366.433594 184.265625 366.46875 185.828125 366.46875 187.394531 C 366.46875 188.960938 366.433594 190.523438 366.355469 192.085938 C 366.277344 193.648438 366.164062 195.210938 366.011719 196.769531 C 365.855469 198.324219 365.664062 199.878906 365.433594 201.425781 C 365.207031 202.972656 364.9375 204.515625 364.632812 206.050781 C 364.328125 207.585938 363.984375 209.113281 363.605469 210.628906 C 363.222656 212.148438 362.808594 213.65625 362.351562 215.15625 C 361.898438 216.652344 361.40625 218.136719 360.878906 219.613281 C 360.351562 221.085938 359.789062 222.542969 359.191406 223.992188 C 358.59375 225.4375 357.957031 226.867188 357.289062 228.28125 C 356.621094 229.695312 355.917969 231.09375 355.179688 232.472656 C 354.441406 233.855469 353.667969 235.214844 352.863281 236.558594 C 352.058594 237.902344 351.222656 239.222656 350.355469 240.523438 C 349.484375 241.824219 348.582031 243.105469 347.652344 244.363281 C 346.71875 245.617188 345.757812 246.851562 344.761719 248.0625 C 343.769531 249.273438 342.75 250.457031 341.695312 251.617188 C 340.644531 252.777344 339.566406 253.910156 338.460938 255.015625 C 337.355469 256.121094 336.222656 257.199219 335.0625 258.253906 C 333.902344 259.304688 332.71875 260.324219 331.507812 261.316406 C 330.296875 262.3125 329.0625 263.273438 327.808594 264.207031 C 326.550781 265.136719 325.269531 266.039062 323.96875 266.910156 C 322.667969 267.777344 321.347656 268.613281 320.003906 269.417969 C 318.660156 270.222656 317.300781 270.996094 315.917969 271.734375 C 314.539062 272.472656 313.140625 273.175781 311.726562 273.84375 C 310.3125 274.511719 308.882812 275.148438 307.4375 275.746094 C 305.988281 276.34375 304.53125 276.90625 303.054688 277.433594 C 301.582031 277.960938 300.097656 278.453125 298.601562 278.90625 C 297.101562 279.363281 295.59375 279.777344 294.074219 280.160156 C 292.558594 280.539062 291.03125 280.882812 289.496094 281.1875 C 287.960938 281.492188 286.417969 281.761719 284.871094 281.988281 C 283.324219 282.21875 281.769531 282.410156 280.214844 282.566406 C 278.65625 282.71875 277.09375 282.832031 275.53125 282.910156 C 273.96875 282.988281 272.40625 283.023438 270.839844 283.023438 C 269.273438 283.023438 267.710938 282.988281 266.148438 282.910156 C 264.582031 282.832031 263.023438 282.71875 261.464844 282.566406 C 259.910156 282.410156 258.355469 282.21875 256.808594 281.988281 C 255.257812 281.761719 253.71875 281.492188 252.183594 281.1875 C 250.648438 280.882812 249.121094 280.539062 247.601562 280.160156 C 246.085938 279.777344 244.578125 279.363281 243.078125 278.90625 C 241.582031 278.453125 240.097656 277.960938 238.621094 277.433594 C 237.148438 276.90625 235.6875 276.34375 234.242188 275.746094 C 232.796875 275.148438 231.367188 274.511719 229.953125 273.84375 C 228.539062 273.175781 227.140625 272.472656 225.757812 271.734375 C 224.378906 270.996094 223.019531 270.222656 221.675781 269.417969 C 220.332031 268.613281 219.011719 267.777344 217.710938 266.910156 C 216.410156 266.039062 215.128906 265.136719 213.871094 264.207031 C 212.613281 263.273438 211.382812 262.3125 210.171875 261.316406 C 208.960938 260.324219 207.777344 259.304688 206.617188 258.253906 C 205.457031 257.199219 204.324219 256.121094 203.21875 255.015625 C 202.113281 253.910156 201.03125 252.777344 199.980469 251.617188 C 198.929688 250.457031 197.910156 249.273438 196.914062 248.0625 C 195.921875 246.851562 194.960938 245.617188 194.027344 244.363281 C 193.097656 243.105469 192.195312 241.824219 191.324219 240.523438 C 190.457031 239.222656 189.617188 237.902344 188.8125 236.558594 C 188.007812 235.214844 187.238281 233.855469 186.5 232.472656 C 185.761719 231.09375 185.058594 229.695312 184.390625 228.28125 C 183.722656 226.867188 183.085938 225.4375 182.488281 223.992188 C 181.890625 222.542969 181.324219 221.085938 180.796875 219.613281 C 180.273438 218.136719 179.78125 216.652344 179.328125 215.15625 C 178.871094 213.65625 178.453125 212.148438 178.074219 210.628906 C 177.695312 209.113281 177.351562 207.585938 177.046875 206.050781 C 176.742188 204.515625 176.472656 202.972656 176.242188 201.425781 C 176.015625 199.878906 175.824219 198.324219 175.667969 196.769531 C 175.515625 195.210938 175.402344 193.648438 175.324219 192.085938 C 175.246094 190.523438 175.207031 188.960938 175.207031 187.394531 C 175.207031 185.828125 175.246094 184.265625 175.324219 182.703125 C 175.402344 181.140625 175.515625 179.578125 175.667969 178.019531 C 175.824219 176.464844 176.015625 174.910156 176.242188 173.363281 C 176.472656 171.8125 176.742188 170.273438 177.046875 168.738281 C 177.351562 167.203125 177.695312 165.675781 178.074219 164.15625 C 178.453125 162.640625 178.871094 161.132812 179.328125 159.632812 C 179.78125 158.136719 180.273438 156.652344 180.796875 155.175781 C 181.324219 153.703125 181.890625 152.242188 182.488281 150.796875 C 183.085938 149.351562 183.722656 147.921875 184.390625 146.507812 C 185.058594 145.09375 185.761719 143.695312 186.5 142.3125 C 187.238281 140.933594 188.007812 139.574219 188.8125 138.230469 C 189.617188 136.886719 190.457031 135.566406 191.324219 134.265625 C 192.195312 132.964844 193.097656 131.683594 194.027344 130.425781 C 194.960938 129.171875 195.921875 127.9375 196.914062 126.726562 C 197.910156 125.515625 198.929688 124.332031 199.980469 123.171875 C 201.03125 122.011719 202.113281 120.878906 203.21875 119.773438 C 204.324219 118.667969 205.457031 117.585938 206.617188 116.535156 C 207.777344 115.484375 208.960938 114.464844 210.171875 113.472656 C 211.382812 112.476562 212.613281 111.515625 213.871094 110.582031 C 215.128906 109.652344 216.410156 108.75 217.710938 107.878906 C 219.011719 107.011719 220.332031 106.171875 221.675781 105.367188 C 223.019531 104.5625 224.378906 103.792969 225.757812 103.054688 C 227.140625 102.316406 228.539062 101.613281 229.953125 100.945312 C 231.367188 100.277344 232.796875 99.640625 234.242188 99.042969 C 235.6875 98.445312 237.148438 97.882812 238.621094 97.355469 C 240.097656 96.828125 241.582031 96.335938 243.078125 95.882812 C 244.578125 95.425781 246.085938 95.007812 247.601562 94.628906 C 249.121094 94.25 250.648438 93.90625 252.183594 93.601562 C 253.71875 93.296875 255.257812 93.027344 256.808594 92.796875 C 258.355469 92.570312 259.910156 92.378906 261.464844 92.222656 C 263.023438 92.070312 264.582031 91.957031 266.148438 91.878906 C 267.710938 91.800781 269.273438 91.761719 270.839844 91.761719 Z M 270.839844 91.761719 " fill-opacity="1" fill-rule="nonzero"/></g><path fill="#e0e0e0" d="M 269.375 125.074219 L 234.175781 182.789062 C 233.898438 183.242188 233.257812 183.292969 232.914062 182.886719 C 229.816406 179.222656 218.269531 163.625 232.558594 149.40625 C 245.59375 136.433594 262.199219 127.183594 268.351562 123.988281 C 269.050781 123.625 269.785156 124.40625 269.375 125.074219 Z M 269.375 125.074219 " fill-opacity="1" fill-rule="nonzero"/><path fill="#e0e0e0" d="M 267.429688 250.738281 C 268.132812 251.230469 268.996094 250.394531 268.527344 249.679688 C 260.664062 237.761719 234.527344 198.113281 230.917969 192.164062 C 227.355469 186.292969 220.351562 176.535156 219.765625 168.1875 C 219.707031 167.355469 218.550781 167.1875 218.261719 167.96875 C 217.792969 169.234375 217.292969 170.742188 216.828125 172.464844 C 210.949219 194.21875 219.484375 217.300781 238.019531 230.226562 Z M 267.429688 250.738281 " fill-opacity="1" fill-rule="nonzero"/><path fill="#e0e0e0" d="M 272.265625 249.710938 L 307.464844 191.996094 C 307.742188 191.546875 308.382812 191.496094 308.726562 191.898438 C 311.824219 195.566406 323.371094 211.164062 309.082031 225.382812 C 296.046875 238.355469 279.441406 247.605469 273.289062 250.800781 C 272.589844 251.164062 271.855469 250.382812 272.265625 249.710938 Z M 272.265625 249.710938 " fill-opacity="1" fill-rule="nonzero"/><path fill="#e0e0e0" d="M 274.25 124.042969 C 273.546875 123.550781 272.683594 124.386719 273.152344 125.101562 C 281.015625 137.019531 307.152344 176.664062 310.761719 182.617188 C 314.324219 188.488281 321.328125 198.246094 321.910156 206.589844 C 321.96875 207.425781 323.125 207.59375 323.417969 206.808594 C 323.886719 205.546875 324.386719 204.039062 324.851562 202.316406 C 330.726562 180.5625 322.195312 157.480469 303.660156 144.554688 Z M 274.25 124.042969 " fill-opacity="1" fill-rule="nonzero"/></svg>