<svg xmlns="http://www.w3.org/2000/svg" xmlns:xlink="http://www.w3.org/1999/xlink" width="500" zoomAndPan="magnify" viewBox="0 0 375 374.999991" height="500" preserveAspectRatio="xMidYMid meet" version="1.0"><defs><clipPath id="bedc69a34c"><path d="M 0 72.308594 L 195 72.308594 L 195 302.558594 L 0 302.558594 Z M 0 72.308594 " clip-rule="nonzero"/></clipPath><clipPath id="d830e3aad5"><path d="M 180.105469 73.808594 L 375 73.808594 L 375 304 L 180.105469 304 Z M 180.105469 73.808594 " clip-rule="nonzero"/></clipPath><clipPath id="52b782c940"><path d="M 183.835938 105.167969 L 191.335938 105.167969 L 191.335938 272.417969 L 183.835938 272.417969 Z M 183.835938 105.167969 " clip-rule="nonzero"/></clipPath></defs><rect x="-37.5" width="450" fill="#ffffff" y="-37.499999" height="449.999989" fill-opacity="1"/><rect x="-37.5" width="450" fill="#000000" y="-37.499999" height="449.999989" fill-opacity="1"/><g clip-path="url(#bedc69a34c)"><path fill="#000000" d="M 195 187.433594 C 195 189.320312 194.953125 191.203125 194.859375 193.085938 C 194.765625 194.964844 194.628906 196.84375 194.445312 198.71875 C 194.257812 200.59375 194.027344 202.464844 193.753906 204.328125 C 193.476562 206.191406 193.152344 208.046875 192.785156 209.894531 C 192.417969 211.742188 192.003906 213.582031 191.546875 215.410156 C 191.089844 217.234375 190.585938 219.050781 190.039062 220.855469 C 189.492188 222.65625 188.902344 224.445312 188.269531 226.21875 C 187.632812 227.992188 186.957031 229.75 186.234375 231.492188 C 185.515625 233.230469 184.75 234.953125 183.945312 236.65625 C 183.140625 238.359375 182.292969 240.042969 181.40625 241.703125 C 180.515625 243.367188 179.585938 245.003906 178.621094 246.621094 C 177.652344 248.238281 176.644531 249.828125 175.597656 251.394531 C 174.550781 252.960938 173.464844 254.5 172.34375 256.015625 C 171.21875 257.527344 170.0625 259.011719 168.867188 260.46875 C 167.671875 261.925781 166.441406 263.351562 165.175781 264.75 C 163.910156 266.144531 162.609375 267.507812 161.277344 268.839844 C 159.945312 270.171875 158.582031 271.472656 157.1875 272.738281 C 155.789062 274.003906 154.363281 275.234375 152.90625 276.429688 C 151.453125 277.625 149.964844 278.78125 148.453125 279.90625 C 146.941406 281.027344 145.398438 282.113281 143.832031 283.160156 C 142.265625 284.203125 140.675781 285.210938 139.058594 286.179688 C 137.441406 287.148438 135.804688 288.078125 134.144531 288.964844 C 132.480469 289.855469 130.796875 290.703125 129.09375 291.507812 C 127.390625 292.3125 125.671875 293.074219 123.929688 293.796875 C 122.1875 294.519531 120.429688 295.195312 118.65625 295.832031 C 116.882812 296.464844 115.09375 297.054688 113.292969 297.601562 C 111.488281 298.148438 109.675781 298.652344 107.847656 299.109375 C 106.019531 299.566406 104.179688 299.980469 102.332031 300.347656 C 100.484375 300.714844 98.628906 301.039062 96.765625 301.3125 C 94.902344 301.589844 93.03125 301.820312 91.15625 302.007812 C 89.28125 302.191406 87.402344 302.328125 85.523438 302.421875 C 83.640625 302.515625 81.757812 302.558594 79.875 302.558594 C 77.988281 302.558594 76.105469 302.515625 74.222656 302.421875 C 72.34375 302.328125 70.464844 302.191406 68.589844 302.007812 C 66.714844 301.820312 64.84375 301.589844 62.980469 301.3125 C 61.117188 301.039062 59.261719 300.714844 57.414062 300.347656 C 55.566406 299.980469 53.726562 299.566406 51.898438 299.109375 C 50.074219 298.652344 48.257812 298.148438 46.453125 297.601562 C 44.652344 297.054688 42.863281 296.464844 41.089844 295.832031 C 39.316406 295.195312 37.558594 294.519531 35.816406 293.796875 C 34.074219 293.074219 32.355469 292.3125 30.652344 291.507812 C 28.949219 290.703125 27.265625 289.855469 25.605469 288.964844 C 23.941406 288.078125 22.304688 287.148438 20.6875 286.179688 C 19.070312 285.210938 17.480469 284.203125 15.914062 283.160156 C 14.347656 282.113281 12.808594 281.027344 11.292969 279.90625 C 9.78125 278.78125 8.296875 277.625 6.839844 276.429688 C 5.382812 275.234375 3.957031 274.003906 2.558594 272.738281 C 1.164062 271.472656 -0.199219 270.171875 -1.53125 268.839844 C -2.863281 267.507812 -4.164062 266.144531 -5.429688 264.75 C -6.695312 263.351562 -7.925781 261.925781 -9.121094 260.46875 C -10.316406 259.011719 -11.472656 257.527344 -12.597656 256.015625 C -13.71875 254.5 -14.804688 252.960938 -15.851562 251.394531 C -16.894531 249.828125 -17.902344 248.238281 -18.871094 246.621094 C -19.839844 245.003906 -20.769531 243.367188 -21.65625 241.703125 C -22.546875 240.042969 -23.394531 238.359375 -24.199219 236.65625 C -25.003906 234.953125 -25.765625 233.230469 -26.488281 231.492188 C -27.210938 229.75 -27.886719 227.992188 -28.523438 226.21875 C -29.15625 224.445312 -29.746094 222.65625 -30.292969 220.855469 C -30.839844 219.050781 -31.34375 217.234375 -31.800781 215.410156 C -32.257812 213.582031 -32.671875 211.742188 -33.039062 209.894531 C -33.40625 208.046875 -33.730469 206.191406 -34.003906 204.328125 C -34.28125 202.464844 -34.511719 200.59375 -34.699219 198.71875 C -34.882812 196.84375 -35.019531 194.964844 -35.113281 193.085938 C -35.207031 191.203125 -35.25 189.320312 -35.25 187.433594 C -35.25 185.550781 -35.207031 183.667969 -35.113281 181.785156 C -35.019531 179.90625 -34.882812 178.027344 -34.699219 176.152344 C -34.511719 174.277344 -34.28125 172.40625 -34.003906 170.542969 C -33.730469 168.679688 -33.40625 166.824219 -33.039062 164.976562 C -32.671875 163.128906 -32.257812 161.289062 -31.800781 159.460938 C -31.34375 157.632812 -30.839844 155.820312 -30.292969 154.015625 C -29.746094 152.214844 -29.15625 150.425781 -28.523438 148.652344 C -27.886719 146.875 -27.210938 145.121094 -26.488281 143.378906 C -25.765625 141.636719 -25.003906 139.917969 -24.199219 138.214844 C -23.394531 136.511719 -22.546875 134.828125 -21.65625 133.164062 C -20.769531 131.503906 -19.839844 129.867188 -18.871094 128.25 C -17.902344 126.632812 -16.894531 125.042969 -15.851562 123.476562 C -14.804688 121.910156 -13.71875 120.367188 -12.597656 118.855469 C -11.472656 117.34375 -10.316406 115.855469 -9.121094 114.402344 C -7.925781 112.945312 -6.695312 111.519531 -5.429688 110.121094 C -4.164062 108.726562 -2.863281 107.363281 -1.53125 106.03125 C -0.199219 104.699219 1.164062 103.398438 2.558594 102.132812 C 3.957031 100.867188 5.382812 99.636719 6.839844 98.441406 C 8.296875 97.246094 9.78125 96.089844 11.292969 94.964844 C 12.808594 93.84375 14.347656 92.757812 15.914062 91.710938 C 17.480469 90.664062 19.070312 89.65625 20.6875 88.6875 C 22.304688 87.71875 23.941406 86.792969 25.605469 85.902344 C 27.265625 85.015625 28.949219 84.167969 30.652344 83.363281 C 32.355469 82.558594 34.074219 81.792969 35.816406 81.074219 C 37.558594 80.351562 39.316406 79.675781 41.089844 79.039062 C 42.863281 78.40625 44.652344 77.816406 46.453125 77.265625 C 48.257812 76.71875 50.074219 76.21875 51.898438 75.761719 C 53.726562 75.300781 55.566406 74.890625 57.414062 74.523438 C 59.261719 74.15625 61.117188 73.832031 62.980469 73.554688 C 64.84375 73.28125 66.714844 73.050781 68.589844 72.863281 C 70.464844 72.679688 72.34375 72.542969 74.222656 72.449219 C 76.105469 72.355469 77.988281 72.308594 79.875 72.308594 C 81.757812 72.308594 83.640625 72.355469 85.523438 72.449219 C 87.402344 72.542969 89.28125 72.679688 91.15625 72.863281 C 93.03125 73.050781 94.902344 73.28125 96.765625 73.554688 C 98.628906 73.832031 100.484375 74.15625 102.332031 74.523438 C 104.179688 74.890625 106.019531 75.300781 107.847656 75.761719 C 109.675781 76.21875 111.488281 76.71875 113.292969 77.265625 C 115.09375 77.816406 116.882812 78.40625 118.65625 79.039062 C 120.429688 79.675781 122.1875 80.351562 123.929688 81.074219 C 125.671875 81.792969 127.390625 82.558594 129.09375 83.363281 C 130.796875 84.167969 132.480469 85.015625 134.144531 85.902344 C 135.804688 86.792969 137.441406 87.71875 139.058594 88.6875 C 140.675781 89.65625 142.265625 90.664062 143.832031 91.710938 C 145.398438 92.757812 146.941406 93.84375 148.453125 94.964844 C 149.964844 96.089844 151.453125 97.246094 152.90625 98.441406 C 154.363281 99.636719 155.789062 100.867188 157.1875 102.132812 C 158.582031 103.398438 159.945312 104.699219 161.277344 106.03125 C 162.609375 107.363281 163.910156 108.726562 165.175781 110.121094 C 166.441406 111.519531 167.671875 112.945312 168.867188 114.402344 C 170.0625 115.855469 171.21875 117.34375 172.34375 118.855469 C 173.464844 120.367188 174.550781 121.910156 175.597656 123.476562 C 176.644531 125.042969 177.652344 126.632812 178.621094 128.25 C 179.585938 129.867188 180.515625 131.503906 181.40625 133.164062 C 182.292969 134.828125 183.140625 136.511719 183.945312 138.214844 C 184.75 139.917969 185.515625 141.636719 186.234375 143.378906 C 186.957031 145.121094 187.632812 146.875 188.269531 148.652344 C 188.902344 150.425781 189.492188 152.214844 190.039062 154.015625 C 190.585938 155.820312 191.089844 157.632812 191.546875 159.460938 C 192.003906 161.289062 192.417969 163.128906 192.785156 164.976562 C 193.152344 166.824219 193.476562 168.679688 193.753906 170.542969 C 194.027344 172.40625 194.257812 174.277344 194.445312 176.152344 C 194.628906 178.027344 194.765625 179.90625 194.859375 181.785156 C 194.953125 183.667969 195 185.550781 195 187.433594 Z M 195 187.433594 " fill-opacity="1" fill-rule="nonzero"/></g><path fill="#ffffff" d="M 151.601562 166.726562 L 132.175781 166.726562 L 120.410156 188.601562 C 120.109375 189.144531 119.671875 189.542969 119.101562 189.789062 L 118.921875 189.859375 C 118.65625 189.960938 118.382812 190.019531 118.101562 190.03125 L 117.988281 190.046875 L 46.574219 190.046875 L 56.324219 207.015625 L 105.324219 206.941406 L 105.785156 206.992188 C 106.003906 207.03125 106.214844 207.09375 106.417969 207.183594 C 106.621094 207.273438 106.8125 207.382812 106.988281 207.519531 C 107.167969 207.652344 107.324219 207.804688 107.464844 207.980469 C 107.605469 208.152344 107.722656 208.339844 107.816406 208.539062 C 107.914062 208.742188 107.984375 208.949219 108.027344 209.167969 C 108.074219 209.386719 108.089844 209.605469 108.082031 209.828125 C 108.074219 210.050781 108.039062 210.269531 107.980469 210.480469 C 107.921875 210.695312 107.835938 210.898438 107.726562 211.09375 L 107.726562 211.085938 L 78.972656 262.980469 L 88.378906 262.980469 L 90.082031 262.984375 L 97.480469 262.984375 C 97.667969 262.984375 98.234375 262.984375 98.675781 262.195312 Z M 100.625 212.511719 L 81.628906 212.53125 L 64.753906 243.082031 C 64.453125 243.636719 64.519531 244.207031 64.664062 244.4375 L 69.398438 252.28125 L 70.648438 254.351562 L 71.871094 256.378906 L 74.195312 260.222656 Z M 27.59375 213.699219 L 7.921875 213.699219 L 14.460938 224.527344 L 17.53125 229.613281 C 17.792969 230.046875 18.359375 230.375 18.828125 230.375 L 36.929688 230.375 Z M 41.867188 192.945312 L 32.347656 210.886719 L 41.796875 227.75 L 51.414062 209.5625 L 41.867188 192.941406 Z M 80.832031 111.882812 L 62.101562 111.882812 C 61.847656 111.914062 61.410156 112.042969 61.066406 112.675781 L 60.871094 113.027344 C 57.652344 118.8125 16.332031 193.351562 8.144531 208.152344 L 27.535156 208.152344 L 39.304688 185.96875 C 39.542969 185.527344 39.875 185.175781 40.300781 184.914062 C 40.730469 184.652344 41.195312 184.519531 41.695312 184.515625 C 41.726562 184.507812 41.757812 184.5 41.789062 184.5 L 112.878906 184.5 C 111.59375 182.261719 110.3125 180.019531 109.042969 177.773438 C 107.035156 174.238281 104.675781 170.074219 103.410156 167.871094 L 55.648438 167.941406 L 54.394531 167.941406 C 54.183594 167.941406 53.972656 167.910156 53.769531 167.855469 L 53.601562 167.804688 C 53.449219 167.761719 53.300781 167.699219 53.15625 167.625 L 53.054688 167.582031 L 52.96875 167.511719 C 52.890625 167.46875 52.8125 167.410156 52.734375 167.351562 C 52.589844 167.25 52.464844 167.128906 52.351562 166.992188 L 52.257812 166.886719 L 52.179688 166.777344 C 52.125 166.707031 52.078125 166.636719 52.035156 166.5625 C 51.9375 166.410156 51.867188 166.246094 51.820312 166.074219 L 51.777344 165.941406 L 51.738281 165.8125 C 51.71875 165.726562 51.703125 165.640625 51.695312 165.554688 C 51.679688 165.453125 51.671875 165.355469 51.667969 165.253906 L 51.652344 165.152344 L 51.667969 165.015625 C 51.667969 164.914062 51.675781 164.804688 51.695312 164.707031 L 51.753906 164.453125 C 51.800781 164.269531 51.867188 164.09375 51.949219 163.921875 L 52.003906 163.777344 Z M 117.9375 147.105469 C 115.664062 151.273438 110.238281 161.28125 108.171875 165.050781 C 109.257812 166.941406 111.195312 170.339844 113.835938 174.996094 C 115.171875 177.355469 116.597656 179.871094 117.75 181.878906 L 127.390625 163.980469 Z M 85.578125 114.710938 L 59.121094 162.34375 L 78.117188 162.324219 L 94.976562 131.785156 C 95.277344 131.234375 95.214844 130.664062 95.070312 130.433594 L 90.363281 122.632812 L 89.113281 120.5625 L 87.3125 117.570312 L 85.585938 114.710938 Z M 122.808594 144.492188 L 132.148438 161.171875 L 151.828125 161.171875 L 145.738281 151.097656 L 142.214844 145.261719 C 141.90625 144.785156 141.472656 144.53125 140.902344 144.5 Z M 122.808594 144.492188 " fill-opacity="1" fill-rule="nonzero"/><g clip-path="url(#d830e3aad5)"><path fill="#000000" d="M 295.164062 73.808594 C 297.050781 73.808594 298.929688 73.855469 300.8125 73.949219 C 302.691406 74.042969 304.570312 74.179688 306.445312 74.363281 C 308.316406 74.550781 310.1875 74.78125 312.050781 75.054688 C 313.910156 75.332031 315.765625 75.652344 317.613281 76.019531 C 319.460938 76.386719 321.296875 76.800781 323.125 77.257812 C 324.949219 77.714844 326.765625 78.21875 328.566406 78.765625 C 330.367188 79.3125 332.15625 79.902344 333.929688 80.535156 C 335.703125 81.171875 337.457031 81.847656 339.199219 82.570312 C 340.9375 83.289062 342.660156 84.050781 344.359375 84.855469 C 346.0625 85.664062 347.746094 86.507812 349.40625 87.398438 C 351.066406 88.285156 352.703125 89.210938 354.320312 90.179688 C 355.933594 91.148438 357.523438 92.15625 359.089844 93.203125 C 360.65625 94.246094 362.195312 95.332031 363.707031 96.453125 C 365.21875 97.574219 366.703125 98.734375 368.160156 99.929688 C 369.613281 101.121094 371.039062 102.351562 372.4375 103.617188 C 373.832031 104.882812 375.195312 106.179688 376.527344 107.511719 C 377.859375 108.84375 379.15625 110.207031 380.421875 111.601562 C 381.683594 112.996094 382.914062 114.421875 384.109375 115.878906 C 385.304688 117.332031 386.460938 118.816406 387.582031 120.328125 C 388.707031 121.84375 389.789062 123.382812 390.835938 124.945312 C 391.882812 126.511719 392.886719 128.101562 393.855469 129.71875 C 394.824219 131.332031 395.753906 132.972656 396.640625 134.632812 C 397.527344 136.292969 398.375 137.972656 399.179688 139.675781 C 399.984375 141.378906 400.746094 143.097656 401.46875 144.839844 C 402.1875 146.578125 402.867188 148.335938 403.5 150.109375 C 404.136719 151.882812 404.726562 153.667969 405.273438 155.46875 C 405.820312 157.273438 406.320312 159.085938 406.777344 160.914062 C 407.234375 162.738281 407.648438 164.578125 408.015625 166.421875 C 408.382812 168.269531 408.703125 170.125 408.980469 171.988281 C 409.257812 173.851562 409.488281 175.71875 409.671875 177.59375 C 409.855469 179.46875 409.996094 181.34375 410.089844 183.226562 C 410.179688 185.105469 410.226562 186.988281 410.226562 188.871094 C 410.226562 190.753906 410.179688 192.636719 410.085938 194.515625 C 409.996094 196.398438 409.855469 198.273438 409.671875 200.148438 C 409.488281 202.023438 409.257812 203.890625 408.980469 205.753906 C 408.703125 207.617188 408.382812 209.472656 408.015625 211.316406 C 407.648438 213.164062 407.234375 215 406.777344 216.828125 C 406.320312 218.65625 405.820312 220.46875 405.273438 222.269531 C 404.726562 224.074219 404.136719 225.859375 403.5 227.632812 C 402.867188 229.40625 402.1875 231.164062 401.46875 232.902344 C 400.746094 234.640625 399.984375 236.363281 399.179688 238.066406 C 398.375 239.769531 397.527344 241.449219 396.640625 243.109375 C 395.753906 244.769531 394.824219 246.410156 393.855469 248.023438 C 392.886719 249.640625 391.882812 251.230469 390.835938 252.796875 C 389.789062 254.359375 388.707031 255.898438 387.582031 257.414062 C 386.460938 258.925781 385.304688 260.410156 384.109375 261.863281 C 382.914062 263.320312 381.683594 264.746094 380.421875 266.140625 C 379.15625 267.535156 377.859375 268.898438 376.527344 270.230469 C 375.195312 271.5625 373.832031 272.859375 372.4375 274.125 C 371.039062 275.390625 369.613281 276.621094 368.160156 277.8125 C 366.703125 279.007812 365.21875 280.167969 363.707031 281.289062 C 362.195312 282.410156 360.65625 283.492188 359.089844 284.539062 C 357.523438 285.585938 355.933594 286.59375 354.320312 287.5625 C 352.703125 288.53125 351.066406 289.457031 349.40625 290.34375 C 347.746094 291.234375 346.0625 292.078125 344.359375 292.882812 C 342.660156 293.6875 340.9375 294.453125 339.199219 295.171875 C 337.457031 295.894531 335.703125 296.570312 333.929688 297.207031 C 332.15625 297.839844 330.367188 298.429688 328.566406 298.976562 C 326.765625 299.523438 324.949219 300.027344 323.125 300.484375 C 321.296875 300.941406 319.460938 301.351562 317.613281 301.71875 C 315.765625 302.085938 313.910156 302.410156 312.050781 302.6875 C 310.1875 302.960938 308.316406 303.191406 306.445312 303.378906 C 304.570312 303.5625 302.691406 303.699219 300.8125 303.792969 C 298.929688 303.886719 297.050781 303.929688 295.164062 303.929688 C 293.28125 303.929688 291.402344 303.886719 289.519531 303.792969 C 287.640625 303.699219 285.761719 303.5625 283.886719 303.378906 C 282.015625 303.191406 280.144531 302.960938 278.28125 302.6875 C 276.421875 302.410156 274.566406 302.085938 272.71875 301.71875 C 270.871094 301.351562 269.035156 300.941406 267.207031 300.484375 C 265.382812 300.027344 263.566406 299.523438 261.765625 298.976562 C 259.964844 298.429688 258.175781 297.839844 256.402344 297.207031 C 254.628906 296.570312 252.875 295.894531 251.132812 295.171875 C 249.394531 294.453125 247.671875 293.6875 245.972656 292.882812 C 244.269531 292.078125 242.585938 291.234375 240.925781 290.34375 C 239.265625 289.457031 237.628906 288.53125 236.011719 287.5625 C 234.398438 286.59375 232.808594 285.585938 231.242188 284.539062 C 229.675781 283.492188 228.136719 282.410156 226.625 281.289062 C 225.113281 280.167969 223.628906 279.007812 222.171875 277.8125 C 220.714844 276.621094 219.292969 275.390625 217.894531 274.125 C 216.5 272.859375 215.136719 271.5625 213.804688 270.230469 C 212.472656 268.898438 211.175781 267.535156 209.910156 266.140625 C 208.648438 264.746094 207.417969 263.320312 206.222656 261.863281 C 205.027344 260.410156 203.871094 258.925781 202.75 257.414062 C 201.625 255.898438 200.542969 254.359375 199.496094 252.796875 C 198.449219 251.230469 197.441406 249.640625 196.476562 248.023438 C 195.507812 246.410156 194.578125 244.769531 193.691406 243.109375 C 192.804688 241.449219 191.957031 239.769531 191.152344 238.066406 C 190.347656 236.363281 189.585938 234.640625 188.863281 232.902344 C 188.144531 231.164062 187.464844 229.40625 186.832031 227.632812 C 186.195312 225.859375 185.605469 224.074219 185.058594 222.269531 C 184.511719 220.46875 184.011719 218.65625 183.554688 216.828125 C 183.097656 215 182.683594 213.164062 182.316406 211.316406 C 181.949219 209.472656 181.628906 207.617188 181.351562 205.753906 C 181.074219 203.890625 180.84375 202.023438 180.660156 200.148438 C 180.476562 198.273438 180.335938 196.398438 180.242188 194.515625 C 180.152344 192.636719 180.105469 190.753906 180.105469 188.871094 C 180.105469 186.988281 180.152344 185.105469 180.242188 183.226562 C 180.335938 181.34375 180.476562 179.46875 180.660156 177.59375 C 180.84375 175.71875 181.074219 173.851562 181.351562 171.988281 C 181.628906 170.125 181.949219 168.269531 182.316406 166.421875 C 182.683594 164.578125 183.097656 162.738281 183.554688 160.914062 C 184.011719 159.085938 184.511719 157.273438 185.058594 155.46875 C 185.605469 153.667969 186.195312 151.882812 186.832031 150.109375 C 187.464844 148.335938 188.144531 146.578125 188.863281 144.839844 C 189.585938 143.097656 190.347656 141.378906 191.152344 139.675781 C 191.957031 137.972656 192.804688 136.292969 193.691406 134.632812 C 194.578125 132.972656 195.507812 131.332031 196.476562 129.71875 C 197.441406 128.101562 198.449219 126.511719 199.496094 124.945312 C 200.542969 123.382812 201.625 121.84375 202.75 120.328125 C 203.871094 118.816406 205.027344 117.332031 206.222656 115.878906 C 207.417969 114.421875 208.648438 112.996094 209.910156 111.601562 C 211.175781 110.207031 212.472656 108.84375 213.804688 107.511719 C 215.136719 106.179688 216.5 104.882812 217.894531 103.617188 C 219.292969 102.351562 220.714844 101.121094 222.171875 99.929688 C 223.628906 98.734375 225.113281 97.574219 226.625 96.453125 C 228.136719 95.332031 229.675781 94.246094 231.242188 93.203125 C 232.808594 92.15625 234.398438 91.148438 236.011719 90.179688 C 237.628906 89.210938 239.265625 88.285156 240.925781 87.398438 C 242.585938 86.507812 244.269531 85.664062 245.972656 84.855469 C 247.671875 84.050781 249.394531 83.289062 251.132812 82.570312 C 252.875 81.847656 254.628906 81.171875 256.402344 80.535156 C 258.175781 79.902344 259.964844 79.3125 261.765625 78.765625 C 263.566406 78.21875 265.382812 77.714844 267.207031 77.257812 C 269.035156 76.800781 270.871094 76.386719 272.71875 76.019531 C 274.566406 75.652344 276.421875 75.332031 278.28125 75.054688 C 280.144531 74.78125 282.015625 74.550781 283.886719 74.363281 C 285.761719 74.179688 287.640625 74.042969 289.519531 73.949219 C 291.402344 73.855469 293.28125 73.808594 295.164062 73.808594 Z M 295.164062 73.808594 " fill-opacity="1" fill-rule="nonzero"/></g><path fill="#ffffff" d="M 293.40625 113.890625 L 251.050781 183.332031 C 250.71875 183.875 249.949219 183.9375 249.535156 183.449219 C 245.808594 179.039062 231.917969 160.269531 249.105469 143.164062 C 264.789062 127.554688 284.769531 116.425781 292.171875 112.582031 C 293.011719 112.144531 293.898438 113.085938 293.40625 113.890625 Z M 293.40625 113.890625 " fill-opacity="1" fill-rule="nonzero"/><path fill="#ffffff" d="M 291.0625 265.085938 C 291.90625 265.675781 292.949219 264.667969 292.382812 263.808594 C 282.921875 249.472656 251.476562 201.769531 247.132812 194.609375 C 242.847656 187.546875 234.421875 175.808594 233.71875 165.765625 C 233.648438 164.761719 232.253906 164.558594 231.90625 165.5 C 231.339844 167.019531 230.742188 168.835938 230.179688 170.910156 C 223.109375 197.082031 233.378906 224.851562 255.679688 240.40625 Z M 291.0625 265.085938 " fill-opacity="1" fill-rule="nonzero"/><path fill="#ffffff" d="M 296.878906 263.851562 L 339.234375 194.410156 C 339.566406 193.863281 340.335938 193.804688 340.75 194.292969 C 344.476562 198.703125 358.367188 217.472656 341.179688 234.574219 C 325.496094 250.183594 305.519531 261.3125 298.113281 265.160156 C 297.273438 265.597656 296.390625 264.65625 296.878906 263.851562 Z M 296.878906 263.851562 " fill-opacity="1" fill-rule="nonzero"/><path fill="#ffffff" d="M 299.269531 112.648438 C 298.425781 112.058594 297.382812 113.0625 297.949219 113.921875 C 307.410156 128.257812 338.855469 175.960938 343.199219 183.125 C 347.484375 190.1875 355.910156 201.925781 356.613281 211.96875 C 356.683594 212.972656 358.078125 213.175781 358.425781 212.230469 C 358.992188 210.710938 359.59375 208.894531 360.152344 206.824219 C 367.222656 180.652344 356.953125 152.878906 334.652344 137.324219 Z M 299.269531 112.648438 " fill-opacity="1" fill-rule="nonzero"/><g clip-path="url(#52b782c940)"><path fill="#ffffff" d="M 183.859375 105.167969 L 183.859375 272.582031 L 191.140625 272.582031 L 191.140625 105.167969 Z M 183.859375 105.167969 " fill-opacity="1" fill-rule="nonzero"/></g></svg>