<svg xmlns="http://www.w3.org/2000/svg" xmlns:xlink="http://www.w3.org/1999/xlink" width="500" zoomAndPan="magnify" viewBox="0 0 375 374.999991" height="500" preserveAspectRatio="xMidYMid meet" version="1.0"><defs><clipPath id="2581f08487"><path d="M 4.488281 4.488281 L 370.488281 4.488281 L 370.488281 370.488281 L 4.488281 370.488281 Z M 4.488281 4.488281 " clip-rule="nonzero"/></clipPath></defs><g clip-path="url(#2581f08487)"><path fill="#050a30" d="M 187.496094 4.488281 C 190.492188 4.488281 193.484375 4.5625 196.476562 4.710938 C 199.464844 4.855469 202.453125 5.078125 205.433594 5.371094 C 208.414062 5.664062 211.386719 6.03125 214.347656 6.46875 C 217.308594 6.910156 220.261719 7.421875 223.199219 8.003906 C 226.136719 8.589844 229.058594 9.246094 231.960938 9.972656 C 234.867188 10.703125 237.753906 11.5 240.617188 12.371094 C 243.484375 13.238281 246.328125 14.179688 249.148438 15.1875 C 251.96875 16.195312 254.761719 17.273438 257.527344 18.421875 C 260.296875 19.566406 263.03125 20.78125 265.742188 22.058594 C 268.449219 23.339844 271.121094 24.6875 273.761719 26.097656 C 276.40625 27.511719 279.011719 28.984375 281.578125 30.527344 C 284.148438 32.066406 286.675781 33.667969 289.167969 35.332031 C 291.65625 36.996094 294.105469 38.71875 296.511719 40.503906 C 298.917969 42.289062 301.277344 44.128906 303.59375 46.03125 C 305.90625 47.929688 308.175781 49.886719 310.394531 51.898438 C 312.613281 53.910156 314.78125 55.972656 316.898438 58.089844 C 319.019531 60.207031 321.082031 62.375 323.09375 64.597656 C 325.105469 66.816406 327.0625 69.082031 328.960938 71.398438 C 330.859375 73.710938 332.703125 76.074219 334.488281 78.480469 C 336.269531 80.882812 337.996094 83.332031 339.660156 85.824219 C 341.324219 88.3125 342.925781 90.84375 344.464844 93.410156 C 346.003906 95.980469 347.480469 98.585938 348.890625 101.226562 C 350.304688 103.867188 351.648438 106.542969 352.929688 109.25 C 354.210938 111.957031 355.425781 114.695312 356.570312 117.460938 C 357.714844 120.230469 358.792969 123.023438 359.804688 125.84375 C 360.8125 128.664062 361.75 131.503906 362.621094 134.371094 C 363.492188 137.238281 364.289062 140.125 365.015625 143.027344 C 365.746094 145.933594 366.402344 148.855469 366.984375 151.792969 C 367.570312 154.730469 368.082031 157.679688 368.519531 160.644531 C 368.960938 163.605469 369.328125 166.578125 369.621094 169.558594 C 369.914062 172.539062 370.132812 175.523438 370.28125 178.515625 C 370.425781 181.507812 370.5 184.5 370.5 187.496094 C 370.5 190.492188 370.425781 193.484375 370.28125 196.476562 C 370.132812 199.464844 369.914062 202.453125 369.621094 205.433594 C 369.328125 208.414062 368.960938 211.386719 368.519531 214.347656 C 368.082031 217.308594 367.570312 220.261719 366.984375 223.199219 C 366.398438 226.136719 365.746094 229.058594 365.015625 231.960938 C 364.289062 234.867188 363.492188 237.753906 362.621094 240.617188 C 361.75 243.484375 360.8125 246.328125 359.804688 249.148438 C 358.792969 251.96875 357.714844 254.761719 356.570312 257.527344 C 355.425781 260.296875 354.210938 263.03125 352.929688 265.742188 C 351.648438 268.449219 350.304688 271.121094 348.890625 273.761719 C 347.480469 276.40625 346.003906 279.011719 344.464844 281.578125 C 342.925781 284.148438 341.324219 286.675781 339.660156 289.167969 C 337.996094 291.65625 336.269531 294.105469 334.488281 296.511719 C 332.703125 298.917969 330.859375 301.277344 328.960938 303.59375 C 327.0625 305.90625 325.105469 308.175781 323.09375 310.394531 C 321.082031 312.613281 319.019531 314.78125 316.898438 316.898438 C 314.78125 319.019531 312.613281 321.082031 310.394531 323.09375 C 308.175781 325.105469 305.90625 327.0625 303.59375 328.960938 C 301.277344 330.859375 298.917969 332.703125 296.511719 334.488281 C 294.105469 336.269531 291.65625 337.996094 289.167969 339.660156 C 286.675781 341.324219 284.148438 342.925781 281.578125 344.464844 C 279.011719 346.003906 276.40625 347.480469 273.761719 348.890625 C 271.121094 350.304688 268.449219 351.648438 265.742188 352.929688 C 263.03125 354.210938 260.296875 355.425781 257.527344 356.570312 C 254.761719 357.714844 251.96875 358.792969 249.148438 359.804688 C 246.328125 360.8125 243.484375 361.75 240.617188 362.621094 C 237.753906 363.492188 234.867188 364.289062 231.960938 365.015625 C 229.058594 365.746094 226.136719 366.402344 223.199219 366.984375 C 220.261719 367.570312 217.308594 368.082031 214.347656 368.519531 C 211.386719 368.960938 208.414062 369.328125 205.433594 369.621094 C 202.453125 369.914062 199.464844 370.132812 196.476562 370.28125 C 193.484375 370.425781 190.492188 370.5 187.496094 370.5 C 184.5 370.5 181.507812 370.425781 178.515625 370.28125 C 175.523438 370.132812 172.539062 369.914062 169.558594 369.621094 C 166.578125 369.328125 163.605469 368.960938 160.644531 368.519531 C 157.679688 368.082031 154.730469 367.570312 151.792969 366.984375 C 148.855469 366.398438 145.933594 365.746094 143.027344 365.015625 C 140.125 364.289062 137.238281 363.492188 134.371094 362.621094 C 131.503906 361.75 128.664062 360.8125 125.84375 359.804688 C 123.023438 358.792969 120.230469 357.714844 117.460938 356.570312 C 114.695312 355.425781 111.957031 354.210938 109.25 352.929688 C 106.542969 351.648438 103.867188 350.304688 101.226562 348.890625 C 98.585938 347.480469 95.980469 346.003906 93.410156 344.464844 C 90.84375 342.925781 88.3125 341.324219 85.824219 339.660156 C 83.332031 337.996094 80.882812 336.269531 78.480469 334.488281 C 76.074219 332.703125 73.710938 330.859375 71.398438 328.960938 C 69.082031 327.0625 66.816406 325.105469 64.597656 323.09375 C 62.375 321.082031 60.207031 319.019531 58.089844 316.898438 C 55.972656 314.78125 53.910156 312.613281 51.898438 310.394531 C 49.886719 308.175781 47.929688 305.90625 46.03125 303.59375 C 44.128906 301.277344 42.289062 298.917969 40.503906 296.511719 C 38.71875 294.105469 36.996094 291.65625 35.332031 289.167969 C 33.667969 286.675781 32.066406 284.148438 30.527344 281.578125 C 28.984375 279.011719 27.511719 276.40625 26.097656 273.761719 C 24.6875 271.121094 23.339844 268.449219 22.058594 265.742188 C 20.78125 263.03125 19.566406 260.296875 18.421875 257.527344 C 17.273438 254.761719 16.195312 251.96875 15.1875 249.148438 C 14.179688 246.328125 13.238281 243.484375 12.371094 240.617188 C 11.5 237.753906 10.703125 234.867188 9.972656 231.960938 C 9.246094 229.058594 8.589844 226.136719 8.003906 223.199219 C 7.421875 220.261719 6.910156 217.308594 6.46875 214.347656 C 6.03125 211.386719 5.664062 208.414062 5.371094 205.433594 C 5.078125 202.453125 4.855469 199.464844 4.710938 196.476562 C 4.5625 193.484375 4.488281 190.492188 4.488281 187.496094 C 4.488281 184.5 4.5625 181.507812 4.710938 178.515625 C 4.855469 175.523438 5.078125 172.539062 5.371094 169.558594 C 5.664062 166.578125 6.03125 163.605469 6.46875 160.644531 C 6.910156 157.679688 7.421875 154.730469 8.003906 151.792969 C 8.589844 148.855469 9.246094 145.933594 9.972656 143.027344 C 10.703125 140.125 11.5 137.238281 12.371094 134.371094 C 13.238281 131.503906 14.179688 128.664062 15.1875 125.84375 C 16.195312 123.023438 17.273438 120.230469 18.421875 117.460938 C 19.566406 114.695312 20.78125 111.957031 22.058594 109.25 C 23.339844 106.542969 24.6875 103.867188 26.097656 101.226562 C 27.511719 98.585938 28.984375 95.980469 30.527344 93.410156 C 32.066406 90.84375 33.667969 88.3125 35.332031 85.824219 C 36.996094 83.332031 38.71875 80.882812 40.503906 78.480469 C 42.289062 76.074219 44.128906 73.710938 46.03125 71.398438 C 47.929688 69.082031 49.886719 66.816406 51.898438 64.597656 C 53.910156 62.375 55.972656 60.207031 58.089844 58.089844 C 60.207031 55.972656 62.375 53.910156 64.597656 51.898438 C 66.816406 49.886719 69.082031 47.929688 71.398438 46.03125 C 73.710938 44.128906 76.074219 42.289062 78.480469 40.503906 C 80.882812 38.71875 83.332031 36.996094 85.824219 35.332031 C 88.3125 33.667969 90.84375 32.066406 93.410156 30.527344 C 95.980469 28.984375 98.585938 27.511719 101.226562 26.097656 C 103.867188 24.6875 106.542969 23.339844 109.25 22.058594 C 111.957031 20.78125 114.695312 19.566406 117.460938 18.421875 C 120.230469 17.273438 123.023438 16.195312 125.84375 15.1875 C 128.664062 14.179688 131.503906 13.238281 134.371094 12.371094 C 137.238281 11.5 140.125 10.703125 143.027344 9.972656 C 145.933594 9.246094 148.855469 8.589844 151.792969 8.003906 C 154.730469 7.421875 157.679688 6.910156 160.644531 6.46875 C 163.605469 6.03125 166.578125 5.664062 169.558594 5.371094 C 172.539062 5.078125 175.523438 4.855469 178.515625 4.710938 C 181.507812 4.5625 184.5 4.488281 187.496094 4.488281 Z M 187.496094 4.488281 " fill-opacity="1" fill-rule="nonzero"/></g><path fill="#f6f6f6" d="M 184.695312 68.238281 L 117.332031 178.683594 C 116.804688 179.550781 115.574219 179.648438 114.921875 178.871094 C 108.988281 171.855469 86.898438 142.007812 114.234375 114.800781 C 139.183594 89.972656 170.957031 72.273438 182.734375 66.15625 C 184.070312 65.460938 185.476562 66.957031 184.695312 68.238281 Z M 184.695312 68.238281 " fill-opacity="1" fill-rule="nonzero"/><path fill="#f6f6f6" d="M 180.96875 308.714844 C 182.3125 309.652344 183.96875 308.054688 183.070312 306.6875 C 168.023438 283.882812 118.003906 208.011719 111.097656 196.621094 C 104.28125 185.386719 90.878906 166.714844 89.761719 150.742188 C 89.648438 149.148438 87.433594 148.824219 86.878906 150.324219 C 85.980469 152.742188 85.023438 155.628906 84.132812 158.925781 C 72.886719 200.554688 89.222656 244.722656 124.691406 269.464844 Z M 180.96875 308.714844 " fill-opacity="1" fill-rule="nonzero"/><path fill="#f6f6f6" d="M 190.222656 306.75 L 257.585938 196.304688 C 258.113281 195.4375 259.339844 195.34375 259.996094 196.117188 C 265.925781 203.132812 288.019531 232.984375 260.683594 260.191406 C 235.734375 285.015625 203.960938 302.71875 192.183594 308.835938 C 190.847656 309.527344 189.441406 308.03125 190.222656 306.75 Z M 190.222656 306.75 " fill-opacity="1" fill-rule="nonzero"/><path fill="#f6f6f6" d="M 194.019531 66.261719 C 192.675781 65.324219 191.019531 66.921875 191.921875 68.285156 C 206.96875 91.089844 256.984375 166.964844 263.894531 178.355469 C 270.710938 189.589844 284.113281 208.257812 285.230469 224.230469 C 285.34375 225.828125 287.554688 226.152344 288.113281 224.652344 C 289.007812 222.230469 289.964844 219.34375 290.855469 216.046875 C 302.101562 174.421875 285.769531 130.25 250.300781 105.511719 Z M 194.019531 66.261719 " fill-opacity="1" fill-rule="nonzero"/></svg>