<svg xmlns="http://www.w3.org/2000/svg" xmlns:xlink="http://www.w3.org/1999/xlink" width="500" zoomAndPan="magnify" viewBox="0 0 375 374.999991" height="500" preserveAspectRatio="xMidYMid meet" version="1.0"><defs><clipPath id="f9329f8f6c"><path d="M 27.726562 82.648438 L 347.226562 82.648438 L 347.226562 292.648438 L 27.726562 292.648438 Z M 27.726562 82.648438 " clip-rule="nonzero"/></clipPath></defs><g clip-path="url(#f9329f8f6c)"><path fill="#ffffff" d="M 266.523438 276.875 L 263.75 284.171875 L 190.71875 284.171875 L 230.003906 180.765625 L 240.46875 153.230469 C 254.878906 115.300781 287.578125 90.789062 323.765625 90.789062 L 337.226562 90.789062 Z M 134.53125 221.726562 C 120.117188 259.660156 87.421875 284.171875 51.230469 284.171875 L 37.773438 284.171875 L 108.421875 98.222656 L 144.9375 194.335938 Z M 346.355469 84.488281 C 345.605469 83.402344 344.375 82.753906 343.050781 82.753906 L 323.765625 82.753906 C 284.210938 82.753906 248.566406 109.296875 232.960938 150.378906 L 225.710938 169.457031 L 194.074219 86.203125 C 193.992188 85.59375 193.769531 85.007812 193.410156 84.488281 C 192.699219 83.460938 191.554688 82.832031 190.320312 82.765625 C 190.308594 82.765625 190.292969 82.765625 190.285156 82.761719 C 190.222656 82.761719 190.164062 82.753906 190.105469 82.753906 L 108.367188 82.753906 C 108.304688 82.753906 108.246094 82.761719 108.183594 82.765625 C 108.175781 82.765625 108.164062 82.765625 108.15625 82.765625 C 106.914062 82.832031 105.773438 83.464844 105.058594 84.488281 C 104.703125 85.003906 104.484375 85.589844 104.398438 86.191406 L 28.191406 286.761719 C 27.722656 288 27.890625 289.382812 28.640625 290.46875 C 29.390625 291.558594 30.628906 292.207031 31.949219 292.207031 L 51.230469 292.207031 C 90.789062 292.207031 126.433594 265.664062 142.039062 224.585938 L 149.234375 205.648438 L 181.140625 289.617188 C 181.144531 289.636719 181.152344 289.648438 181.160156 289.660156 C 181.195312 289.753906 181.234375 289.847656 181.28125 289.941406 C 181.367188 290.125 181.46875 290.300781 181.589844 290.46875 C 181.675781 290.605469 181.777344 290.734375 181.890625 290.855469 C 181.945312 290.917969 182.003906 290.976562 182.058594 291.03125 C 182.113281 291.089844 182.175781 291.148438 182.234375 291.199219 C 182.292969 291.25 182.351562 291.300781 182.414062 291.351562 C 182.558594 291.464844 182.714844 291.566406 182.875 291.65625 C 182.957031 291.707031 183.042969 291.753906 183.132812 291.796875 C 183.210938 291.835938 183.292969 291.871094 183.378906 291.90625 C 183.386719 291.914062 183.40625 291.921875 183.421875 291.921875 C 183.511719 291.960938 183.597656 291.992188 183.691406 292.019531 C 183.765625 292.046875 183.847656 292.066406 183.929688 292.089844 C 184.046875 292.117188 184.167969 292.140625 184.292969 292.160156 C 184.378906 292.175781 184.460938 292.179688 184.550781 292.1875 C 184.664062 292.199219 184.78125 292.203125 184.894531 292.203125 L 266.523438 292.203125 C 266.636719 292.203125 266.75 292.199219 266.859375 292.1875 C 266.949219 292.183594 267.035156 292.175781 267.125 292.160156 C 267.449219 292.113281 267.753906 292.027344 268.050781 291.902344 C 268.128906 291.871094 268.210938 291.835938 268.292969 291.796875 C 268.378906 291.753906 268.464844 291.707031 268.542969 291.65625 C 268.5625 291.652344 268.582031 291.636719 268.597656 291.628906 C 268.742188 291.546875 268.875 291.453125 268.996094 291.355469 C 269 291.351562 269 291.351562 269.007812 291.351562 C 269.066406 291.300781 269.125 291.25 269.179688 291.199219 C 269.238281 291.152344 269.292969 291.105469 269.339844 291.054688 C 269.664062 290.734375 269.9375 290.359375 270.140625 289.941406 C 270.183594 289.847656 270.222656 289.753906 270.257812 289.660156 C 270.269531 289.648438 270.273438 289.636719 270.277344 289.617188 L 346.808594 88.195312 C 347.273438 86.964844 347.109375 85.574219 346.355469 84.488281 " fill-opacity="1" fill-rule="nonzero"/></g></svg>