<svg xmlns="http://www.w3.org/2000/svg" xmlns:xlink="http://www.w3.org/1999/xlink" width="512" zoomAndPan="magnify" viewBox="0 0 384 383.999986" height="512" preserveAspectRatio="xMidYMid meet" version="1.0"><defs><clipPath id="a1e28320fd"><path d="M 0.25 0.121094 L 267.804688 0.121094 L 267.804688 317.964844 L 0.25 317.964844 Z M 0.25 0.121094 " clip-rule="nonzero"/></clipPath><clipPath id="2524766b67"><path d="M 0.222656 29.695312 L 86.609375 29.695312 L 86.609375 187.953125 L 0.222656 187.953125 Z M 0.222656 29.695312 " clip-rule="nonzero"/></clipPath><clipPath id="2be5fe92ca"><path d="M 86.609375 108.691406 L 0.222656 187.6875 L 0.222656 29.695312 Z M 86.609375 108.691406 " clip-rule="nonzero"/></clipPath><clipPath id="6150028c22"><path d="M 0.222656 0.695312 L 86.609375 0.695312 L 86.609375 158.800781 L 0.222656 158.800781 Z M 0.222656 0.695312 " clip-rule="nonzero"/></clipPath><clipPath id="376489c042"><path d="M 86.609375 79.691406 L 0.222656 158.6875 L 0.222656 0.695312 Z M 86.609375 79.691406 " clip-rule="nonzero"/></clipPath><clipPath id="b9f48ea3fd"><rect x="0" width="87" y="0" height="159"/></clipPath><clipPath id="71cff9336c"><rect x="0" width="270" y="0" height="319"/></clipPath></defs><g transform="matrix(1, 0, 0, 1, 70, 33)"><g clip-path="url(#71cff9336c)"><g clip-path="url(#a1e28320fd)"><path fill="#ffffff" d="M 268.675781 317.832031 L 169.941406 317.832031 L 108.640625 218.269531 L 85.003906 218.269531 L 85.003906 317.832031 L 0.640625 317.832031 L 0.515625 216.695312 L 84.59375 139.664062 L 119.085938 139.859375 C 137.027344 140.054688 153.382812 127.4375 153.382812 107.929688 C 153.382812 88.21875 136.820312 76.003906 119.085938 76.003906 L 84.601562 76.003906 L 0.25 0.125 L 120.867188 0.125 C 189.449219 0.125 238.527344 46.441406 238.527344 103.410156 C 238.527344 143.019531 214.675781 176.132812 183.539062 190.324219 Z M 268.675781 317.832031 " fill-opacity="1" fill-rule="nonzero"/></g><g clip-path="url(#2524766b67)"><g clip-path="url(#2be5fe92ca)"><g transform="matrix(1, 0, 0, 1, 0, 29)"><g clip-path="url(#b9f48ea3fd)"><g clip-path="url(#6150028c22)"><g clip-path="url(#376489c042)"><path fill="#ff3131" d="M 86.609375 0.695312 L 86.609375 158.617188 L 0.222656 158.617188 L 0.222656 0.695312 Z M 86.609375 0.695312 " fill-opacity="1" fill-rule="nonzero"/></g></g></g></g></g></g></g></g></svg>