<svg xmlns="http://www.w3.org/2000/svg" xmlns:xlink="http://www.w3.org/1999/xlink" width="500" zoomAndPan="magnify" viewBox="0 0 375 374.999991" height="500" preserveAspectRatio="xMidYMid meet" version="1.0"><defs><clipPath id="9f060a27cf"><path d="M 77.03125 44.113281 L 319 44.113281 L 319 330.613281 L 77.03125 330.613281 Z M 77.03125 44.113281 " clip-rule="nonzero"/></clipPath><clipPath id="3df05f357e"><path d="M 77.027344 82.683594 L 138.523438 82.683594 L 138.523438 199.671875 L 77.027344 199.671875 Z M 77.027344 82.683594 " clip-rule="nonzero"/></clipPath><clipPath id="dcec87a2d2"><path d="M 138.523438 141.070312 L 77.027344 199.453125 L 77.027344 82.683594 Z M 138.523438 141.070312 " clip-rule="nonzero"/></clipPath><clipPath id="9e964b92e0"><path d="M 0.0273438 0.683594 L 61.523438 0.683594 L 61.523438 117.671875 L 0.0273438 117.671875 Z M 0.0273438 0.683594 " clip-rule="nonzero"/></clipPath><clipPath id="1d581d3cff"><path d="M 61.523438 59.070312 L 0.0273438 117.453125 L 0.0273438 0.683594 Z M 61.523438 59.070312 " clip-rule="nonzero"/></clipPath><clipPath id="3b7323fd49"><rect x="0" width="62" y="0" height="118"/></clipPath></defs><rect x="-37.5" width="450" fill="#ffffff" y="-37.499999" height="449.999989" fill-opacity="1"/><rect x="-37.5" width="450" fill="#000000" y="-37.499999" height="449.999989" fill-opacity="1"/><g clip-path="url(#9f060a27cf)"><path fill="#ffffff" d="M 319 330.691406 L 230 330.691406 L 174.742188 240.941406 L 153.433594 240.941406 L 153.433594 330.691406 L 77.386719 330.691406 L 77.269531 239.519531 L 153.0625 170.082031 L 184.15625 170.257812 C 200.328125 170.433594 215.074219 159.058594 215.074219 141.476562 C 215.074219 123.707031 200.144531 112.695312 184.15625 112.695312 L 153.070312 112.695312 L 77.03125 44.296875 L 185.761719 44.296875 C 247.585938 44.296875 291.828125 86.046875 291.828125 137.398438 C 291.828125 173.105469 270.324219 202.957031 242.257812 215.75 Z M 319 330.691406 " fill-opacity="1" fill-rule="nonzero"/></g><g clip-path="url(#3df05f357e)"><g clip-path="url(#dcec87a2d2)"><g transform="matrix(1, 0, 0, 1, 77, 82)"><g clip-path="url(#3b7323fd49)"><g clip-path="url(#9e964b92e0)"><g clip-path="url(#1d581d3cff)"><path fill="#ff3131" d="M 61.523438 0.683594 L 61.523438 117.429688 L 0.0273438 117.429688 L 0.0273438 0.683594 Z M 61.523438 0.683594 " fill-opacity="1" fill-rule="nonzero"/></g></g></g></g></g></g></svg>