<svg xmlns="http://www.w3.org/2000/svg" xmlns:xlink="http://www.w3.org/1999/xlink" width="500" zoomAndPan="magnify" viewBox="0 0 375 374.999991" height="500" preserveAspectRatio="xMidYMid meet" version="1.0"><defs><clipPath id="61df9a309f"><path d="M 4.6875 4.6875 L 370.6875 4.6875 L 370.6875 370.6875 L 4.6875 370.6875 Z M 4.6875 4.6875 " clip-rule="nonzero"/></clipPath></defs><g clip-path="url(#61df9a309f)"><path fill="#000000" d="M 370.6875 187.6875 C 370.6875 190.683594 370.613281 193.675781 370.46875 196.667969 C 370.320312 199.65625 370.101562 202.644531 369.804688 205.625 C 369.511719 208.605469 369.144531 211.578125 368.707031 214.539062 C 368.265625 217.5 367.753906 220.453125 367.171875 223.390625 C 366.585938 226.328125 365.929688 229.246094 365.203125 232.152344 C 364.476562 235.058594 363.675781 237.945312 362.808594 240.808594 C 361.9375 243.675781 361 246.519531 359.988281 249.339844 C 358.980469 252.15625 357.902344 254.953125 356.757812 257.71875 C 355.609375 260.484375 354.398438 263.222656 353.117188 265.929688 C 351.835938 268.636719 350.492188 271.3125 349.078125 273.953125 C 347.667969 276.59375 346.191406 279.199219 344.652344 281.769531 C 343.113281 284.335938 341.511719 286.867188 339.847656 289.355469 C 338.183594 291.847656 336.457031 294.292969 334.675781 296.699219 C 332.890625 299.105469 331.046875 301.464844 329.148438 303.78125 C 327.25 306.097656 325.292969 308.363281 323.28125 310.582031 C 321.269531 312.800781 319.207031 314.96875 317.089844 317.089844 C 314.96875 319.207031 312.800781 321.269531 310.582031 323.28125 C 308.363281 325.292969 306.097656 327.25 303.78125 329.148438 C 301.464844 331.046875 299.105469 332.890625 296.699219 334.675781 C 294.292969 336.457031 291.847656 338.183594 289.355469 339.847656 C 286.867188 341.511719 284.335938 343.113281 281.769531 344.652344 C 279.199219 346.191406 276.59375 347.667969 273.953125 349.078125 C 271.3125 350.492188 268.636719 351.835938 265.929688 353.117188 C 263.222656 354.398438 260.484375 355.609375 257.71875 356.757812 C 254.953125 357.902344 252.160156 358.980469 249.339844 359.988281 C 246.519531 361 243.675781 361.9375 240.808594 362.808594 C 237.945312 363.675781 235.058594 364.476562 232.152344 365.203125 C 229.246094 365.929688 226.328125 366.585938 223.390625 367.171875 C 220.453125 367.753906 217.5 368.265625 214.539062 368.707031 C 211.578125 369.144531 208.605469 369.511719 205.625 369.804688 C 202.644531 370.101562 199.65625 370.320312 196.667969 370.46875 C 193.675781 370.613281 190.683594 370.6875 187.6875 370.6875 C 184.691406 370.6875 181.699219 370.613281 178.707031 370.46875 C 175.714844 370.320312 172.730469 370.101562 169.75 369.804688 C 166.769531 369.511719 163.796875 369.144531 160.835938 368.707031 C 157.875 368.265625 154.921875 367.753906 151.984375 367.171875 C 149.046875 366.585938 146.128906 365.929688 143.222656 365.203125 C 140.316406 364.476562 137.429688 363.675781 134.566406 362.808594 C 131.699219 361.9375 128.855469 361 126.035156 359.988281 C 123.214844 358.980469 120.421875 357.902344 117.65625 356.757812 C 114.890625 355.609375 112.152344 354.398438 109.445312 353.117188 C 106.738281 351.835938 104.0625 350.492188 101.421875 349.078125 C 98.78125 347.667969 96.175781 346.191406 93.605469 344.652344 C 91.039062 343.113281 88.507812 341.511719 86.019531 339.847656 C 83.527344 338.183594 81.078125 336.457031 78.675781 334.675781 C 76.269531 332.890625 73.910156 331.046875 71.59375 329.148438 C 69.277344 327.25 67.011719 325.292969 64.792969 323.28125 C 62.574219 321.269531 60.40625 319.207031 58.285156 317.089844 C 56.167969 314.96875 54.105469 312.800781 52.09375 310.582031 C 50.082031 308.363281 48.125 306.097656 46.226562 303.78125 C 44.328125 301.464844 42.484375 299.105469 40.699219 296.699219 C 38.917969 294.292969 37.191406 291.847656 35.527344 289.355469 C 33.863281 286.867188 32.261719 284.335938 30.722656 281.769531 C 29.183594 279.199219 27.707031 276.59375 26.296875 273.953125 C 24.882812 271.3125 23.539062 268.636719 22.257812 265.929688 C 20.976562 263.222656 19.761719 260.484375 18.617188 257.71875 C 17.472656 254.953125 16.394531 252.15625 15.386719 249.339844 C 14.375 246.519531 13.4375 243.675781 12.566406 240.808594 C 11.699219 237.945312 10.898438 235.058594 10.171875 232.152344 C 9.445312 229.246094 8.789062 226.328125 8.203125 223.390625 C 7.621094 220.453125 7.109375 217.5 6.667969 214.539062 C 6.230469 211.578125 5.863281 208.605469 5.570312 205.625 C 5.273438 202.644531 5.054688 199.65625 4.90625 196.667969 C 4.761719 193.675781 4.6875 190.683594 4.6875 187.6875 C 4.6875 184.691406 4.761719 181.699219 4.90625 178.707031 C 5.054688 175.714844 5.273438 172.730469 5.570312 169.75 C 5.863281 166.769531 6.230469 163.796875 6.667969 160.835938 C 7.109375 157.875 7.621094 154.921875 8.203125 151.984375 C 8.789062 149.046875 9.445312 146.128906 10.171875 143.222656 C 10.898438 140.316406 11.699219 137.429688 12.566406 134.566406 C 13.4375 131.699219 14.375 128.855469 15.386719 126.035156 C 16.394531 123.214844 17.472656 120.421875 18.617188 117.65625 C 19.761719 114.890625 20.976562 112.152344 22.257812 109.445312 C 23.539062 106.738281 24.882812 104.0625 26.296875 101.421875 C 27.707031 98.78125 29.183594 96.175781 30.722656 93.605469 C 32.261719 91.039062 33.863281 88.507812 35.527344 86.019531 C 37.191406 83.527344 38.917969 81.078125 40.699219 78.675781 C 42.484375 76.269531 44.328125 73.910156 46.226562 71.59375 C 48.125 69.277344 50.082031 67.011719 52.09375 64.792969 C 54.105469 62.574219 56.167969 60.40625 58.285156 58.285156 C 60.40625 56.167969 62.574219 54.105469 64.792969 52.09375 C 67.011719 50.082031 69.277344 48.125 71.59375 46.226562 C 73.910156 44.328125 76.269531 42.484375 78.675781 40.699219 C 81.078125 38.917969 83.527344 37.191406 86.019531 35.527344 C 88.507812 33.863281 91.039062 32.261719 93.605469 30.722656 C 96.175781 29.183594 98.78125 27.707031 101.421875 26.296875 C 104.0625 24.882812 106.738281 23.539062 109.445312 22.257812 C 112.152344 20.976562 114.890625 19.761719 117.65625 18.617188 C 120.421875 17.472656 123.214844 16.394531 126.035156 15.386719 C 128.855469 14.375 131.699219 13.4375 134.566406 12.566406 C 137.429688 11.699219 140.316406 10.898438 143.222656 10.171875 C 146.128906 9.445312 149.046875 8.789062 151.984375 8.203125 C 154.921875 7.621094 157.875 7.109375 160.835938 6.667969 C 163.796875 6.230469 166.769531 5.863281 169.75 5.570312 C 172.730469 5.273438 175.714844 5.054688 178.707031 4.90625 C 181.699219 4.761719 184.691406 4.6875 187.6875 4.6875 C 190.683594 4.6875 193.675781 4.761719 196.667969 4.90625 C 199.65625 5.054688 202.644531 5.273438 205.625 5.570312 C 208.605469 5.863281 211.578125 6.230469 214.539062 6.667969 C 217.5 7.109375 220.453125 7.621094 223.390625 8.203125 C 226.328125 8.789062 229.246094 9.445312 232.152344 10.171875 C 235.058594 10.898438 237.945312 11.699219 240.808594 12.566406 C 243.675781 13.4375 246.519531 14.375 249.339844 15.386719 C 252.160156 16.394531 254.953125 17.472656 257.71875 18.617188 C 260.484375 19.761719 263.222656 20.976562 265.929688 22.257812 C 268.636719 23.539062 271.3125 24.882812 273.953125 26.296875 C 276.59375 27.707031 279.199219 29.183594 281.769531 30.722656 C 284.335938 32.261719 286.867188 33.863281 289.355469 35.527344 C 291.847656 37.191406 294.292969 38.917969 296.699219 40.699219 C 299.105469 42.484375 301.464844 44.328125 303.78125 46.226562 C 306.097656 48.125 308.363281 50.082031 310.582031 52.09375 C 312.800781 54.105469 314.96875 56.167969 317.089844 58.285156 C 319.207031 60.40625 321.269531 62.574219 323.28125 64.792969 C 325.292969 67.011719 327.25 69.277344 329.148438 71.59375 C 331.046875 73.910156 332.890625 76.269531 334.675781 78.675781 C 336.457031 81.078125 338.183594 83.527344 339.847656 86.019531 C 341.511719 88.507812 343.113281 91.039062 344.652344 93.605469 C 346.191406 96.175781 347.667969 98.78125 349.078125 101.421875 C 350.492188 104.0625 351.835938 106.738281 353.117188 109.445312 C 354.398438 112.152344 355.609375 114.890625 356.757812 117.65625 C 357.902344 120.421875 358.980469 123.214844 359.988281 126.035156 C 361 128.855469 361.9375 131.699219 362.808594 134.566406 C 363.675781 137.429688 364.476562 140.316406 365.203125 143.222656 C 365.929688 146.128906 366.585938 149.046875 367.171875 151.984375 C 367.753906 154.921875 368.265625 157.875 368.707031 160.835938 C 369.144531 163.796875 369.511719 166.769531 369.804688 169.75 C 370.101562 172.730469 370.320312 175.714844 370.46875 178.707031 C 370.613281 181.699219 370.6875 184.691406 370.6875 187.6875 Z M 370.6875 187.6875 " fill-opacity="1" fill-rule="nonzero"/></g><path fill="#ffffff" d="M 301.707031 154.769531 L 270.828125 154.769531 L 252.125 189.539062 C 251.648438 190.40625 250.953125 191.035156 250.042969 191.425781 L 249.757812 191.542969 C 249.339844 191.699219 248.902344 191.792969 248.453125 191.816406 L 248.273438 191.839844 L 134.753906 191.839844 L 150.253906 218.808594 L 228.140625 218.695312 L 228.875 218.773438 C 229.222656 218.835938 229.558594 218.9375 229.882812 219.078125 C 230.207031 219.21875 230.507812 219.394531 230.789062 219.609375 C 231.070312 219.824219 231.324219 220.070312 231.546875 220.34375 C 231.769531 220.617188 231.957031 220.914062 232.105469 221.234375 C 232.257812 221.554688 232.371094 221.886719 232.441406 222.234375 C 232.511719 222.578125 232.542969 222.929688 232.527344 223.28125 C 232.515625 223.636719 232.460938 223.980469 232.367188 224.320312 C 232.269531 224.664062 232.136719 224.984375 231.960938 225.292969 L 231.960938 225.28125 L 186.257812 307.769531 L 201.207031 307.769531 L 203.917969 307.78125 L 215.675781 307.78125 C 215.972656 307.78125 216.875 307.78125 217.574219 306.523438 Z M 220.671875 227.546875 L 190.476562 227.582031 L 163.65625 276.144531 C 163.175781 277.027344 163.28125 277.929688 163.507812 278.296875 L 171.035156 290.761719 L 173.023438 294.054688 L 174.96875 297.28125 L 178.664062 303.390625 Z M 104.582031 229.433594 L 73.3125 229.433594 L 83.710938 246.648438 L 88.59375 254.734375 C 89.003906 255.421875 89.910156 255.945312 90.652344 255.945312 L 119.429688 255.945312 Z M 127.273438 196.449219 L 112.144531 224.960938 L 127.160156 251.773438 L 142.453125 222.859375 L 127.273438 196.4375 Z M 189.207031 67.59375 L 159.4375 67.59375 C 159.035156 67.640625 158.339844 67.84375 157.789062 68.851562 L 157.480469 69.414062 C 152.367188 78.609375 86.683594 197.089844 73.667969 220.617188 L 104.492188 220.617188 L 123.203125 185.355469 C 123.578125 184.652344 124.105469 184.09375 124.785156 183.679688 C 125.464844 183.265625 126.203125 183.054688 127 183.042969 C 127.050781 183.03125 127.097656 183.023438 127.148438 183.019531 L 240.152344 183.019531 C 238.105469 179.464844 236.074219 175.898438 234.054688 172.328125 C 230.863281 166.710938 227.113281 160.089844 225.097656 156.589844 L 149.175781 156.703125 L 147.1875 156.703125 C 146.851562 156.699219 146.519531 156.652344 146.191406 156.566406 L 145.929688 156.484375 C 145.683594 156.414062 145.449219 156.316406 145.21875 156.199219 L 145.058594 156.132812 L 144.921875 156.015625 C 144.796875 155.949219 144.671875 155.855469 144.546875 155.765625 C 144.320312 155.597656 144.117188 155.40625 143.9375 155.195312 L 143.789062 155.023438 L 143.664062 154.851562 C 143.582031 154.742188 143.503906 154.625 143.4375 154.507812 C 143.28125 154.265625 143.167969 154.007812 143.09375 153.730469 L 143.023438 153.523438 L 142.96875 153.316406 C 142.933594 153.183594 142.910156 153.046875 142.898438 152.90625 C 142.871094 152.746094 142.855469 152.585938 142.851562 152.425781 L 142.828125 152.265625 L 142.851562 152.046875 C 142.851562 151.886719 142.863281 151.714844 142.898438 151.554688 L 142.988281 151.15625 C 143.066406 150.863281 143.167969 150.582031 143.296875 150.308594 L 143.390625 150.082031 Z M 248.191406 123.582031 C 244.578125 130.203125 235.953125 146.113281 232.671875 152.105469 C 234.398438 155.113281 237.476562 160.511719 241.671875 167.910156 C 243.800781 171.664062 246.066406 175.667969 247.894531 178.859375 L 263.222656 150.402344 Z M 196.757812 72.089844 L 154.703125 147.804688 L 184.898438 147.769531 L 211.695312 99.230469 C 212.175781 98.347656 212.070312 97.445312 211.84375 97.078125 L 204.363281 84.679688 L 202.375 81.386719 L 199.515625 76.628906 L 196.769531 72.089844 Z M 255.933594 119.429688 L 270.78125 145.941406 L 302.0625 145.941406 L 292.386719 129.929688 L 286.78125 120.652344 C 286.554688 120.292969 286.253906 120.007812 285.886719 119.792969 C 285.519531 119.578125 285.125 119.460938 284.699219 119.441406 Z M 255.933594 119.429688 " fill-opacity="1" fill-rule="nonzero"/></svg>