<svg xmlns="http://www.w3.org/2000/svg" xmlns:xlink="http://www.w3.org/1999/xlink" width="500" zoomAndPan="magnify" viewBox="0 0 375 374.999991" height="500" preserveAspectRatio="xMidYMid meet" version="1.0"><defs><clipPath id="213d9bd3e9"><path d="M 37.5 37.5 L 337.5 37.5 L 337.5 337.5 L 37.5 337.5 Z M 37.5 37.5 " clip-rule="nonzero"/></clipPath></defs><g clip-path="url(#213d9bd3e9)"><path fill="#000000" d="M 337.5 187.5 C 337.5 189.953125 337.441406 192.410156 337.320312 194.859375 C 337.199219 197.3125 337.019531 199.757812 336.777344 202.203125 C 336.535156 204.644531 336.238281 207.082031 335.875 209.507812 C 335.515625 211.9375 335.097656 214.355469 334.617188 216.761719 C 334.140625 219.171875 333.601562 221.566406 333.003906 223.945312 C 332.40625 226.328125 331.753906 228.695312 331.039062 231.042969 C 330.328125 233.390625 329.558594 235.722656 328.730469 238.035156 C 327.90625 240.34375 327.019531 242.632812 326.082031 244.902344 C 325.140625 247.171875 324.148438 249.414062 323.097656 251.632812 C 322.046875 253.851562 320.945312 256.042969 319.789062 258.210938 C 318.632812 260.375 317.421875 262.511719 316.160156 264.617188 C 314.898438 266.722656 313.585938 268.792969 312.21875 270.835938 C 310.855469 272.875 309.445312 274.882812 307.980469 276.855469 C 306.519531 278.828125 305.007812 280.761719 303.453125 282.660156 C 301.894531 284.554688 300.292969 286.414062 298.644531 288.234375 C 296.992188 290.054688 295.300781 291.832031 293.566406 293.566406 C 291.832031 295.300781 290.054688 296.992188 288.234375 298.644531 C 286.414062 300.292969 284.554688 301.894531 282.660156 303.453125 C 280.761719 305.007812 278.828125 306.519531 276.855469 307.980469 C 274.882812 309.445312 272.875 310.855469 270.835938 312.21875 C 268.792969 313.585938 266.722656 314.898438 264.617188 316.160156 C 262.511719 317.421875 260.375 318.632812 258.210938 319.789062 C 256.042969 320.945312 253.851562 322.046875 251.632812 323.097656 C 249.414062 324.148438 247.171875 325.140625 244.902344 326.082031 C 242.632812 327.019531 240.34375 327.90625 238.035156 328.730469 C 235.722656 329.558594 233.390625 330.328125 231.042969 331.042969 C 228.695312 331.753906 226.328125 332.40625 223.945312 333.003906 C 221.566406 333.601562 219.171875 334.140625 216.761719 334.617188 C 214.355469 335.097656 211.9375 335.515625 209.507812 335.875 C 207.082031 336.238281 204.644531 336.535156 202.203125 336.777344 C 199.757812 337.019531 197.3125 337.199219 194.859375 337.320312 C 192.410156 337.441406 189.953125 337.5 187.5 337.5 C 185.046875 337.5 182.589844 337.441406 180.140625 337.320312 C 177.6875 337.199219 175.242188 337.019531 172.796875 336.777344 C 170.355469 336.535156 167.917969 336.238281 165.492188 335.875 C 163.0625 335.515625 160.644531 335.097656 158.238281 334.617188 C 155.828125 334.140625 153.433594 333.601562 151.054688 333.003906 C 148.671875 332.40625 146.304688 331.753906 143.957031 331.039062 C 141.609375 330.328125 139.277344 329.558594 136.964844 328.730469 C 134.65625 327.90625 132.367188 327.019531 130.097656 326.082031 C 127.828125 325.140625 125.585938 324.148438 123.367188 323.097656 C 121.148438 322.046875 118.957031 320.945312 116.789062 319.789062 C 114.625 318.632812 112.488281 317.421875 110.382812 316.160156 C 108.277344 314.898438 106.207031 313.585938 104.164062 312.21875 C 102.125 310.855469 100.117188 309.445312 98.144531 307.980469 C 96.171875 306.519531 94.238281 305.007812 92.339844 303.453125 C 90.445312 301.894531 88.585938 300.292969 86.765625 298.644531 C 84.945312 296.992188 83.167969 295.300781 81.433594 293.566406 C 79.699219 291.832031 78.007812 290.054688 76.355469 288.234375 C 74.707031 286.414062 73.105469 284.554688 71.546875 282.660156 C 69.992188 280.761719 68.480469 278.828125 67.019531 276.855469 C 65.554688 274.882812 64.144531 272.875 62.78125 270.835938 C 61.414062 268.792969 60.101562 266.722656 58.839844 264.617188 C 57.578125 262.511719 56.367188 260.375 55.210938 258.210938 C 54.054688 256.042969 52.953125 253.851562 51.902344 251.632812 C 50.851562 249.414062 49.859375 247.171875 48.917969 244.902344 C 47.980469 242.632812 47.09375 240.34375 46.269531 238.035156 C 45.441406 235.722656 44.671875 233.390625 43.957031 231.042969 C 43.246094 228.695312 42.589844 226.328125 41.996094 223.945312 C 41.398438 221.566406 40.859375 219.171875 40.382812 216.761719 C 39.902344 214.355469 39.484375 211.9375 39.125 209.507812 C 38.761719 207.082031 38.464844 204.644531 38.222656 202.203125 C 37.980469 199.757812 37.800781 197.3125 37.679688 194.859375 C 37.558594 192.410156 37.5 189.953125 37.5 187.5 C 37.5 185.046875 37.558594 182.589844 37.679688 180.140625 C 37.800781 177.6875 37.980469 175.242188 38.222656 172.796875 C 38.464844 170.355469 38.761719 167.917969 39.125 165.492188 C 39.484375 163.0625 39.902344 160.644531 40.382812 158.238281 C 40.859375 155.828125 41.398438 153.433594 41.996094 151.054688 C 42.589844 148.671875 43.246094 146.304688 43.957031 143.957031 C 44.671875 141.609375 45.441406 139.277344 46.269531 136.964844 C 47.09375 134.65625 47.980469 132.367188 48.917969 130.097656 C 49.859375 127.828125 50.851562 125.585938 51.902344 123.367188 C 52.953125 121.148438 54.054688 118.957031 55.210938 116.789062 C 56.367188 114.625 57.578125 112.488281 58.839844 110.382812 C 60.101562 108.277344 61.414062 106.207031 62.78125 104.164062 C 64.144531 102.125 65.554688 100.117188 67.019531 98.144531 C 68.480469 96.171875 69.992188 94.238281 71.546875 92.339844 C 73.105469 90.445312 74.707031 88.585938 76.355469 86.765625 C 78.007812 84.945312 79.699219 83.167969 81.433594 81.433594 C 83.167969 79.699219 84.945312 78.007812 86.765625 76.355469 C 88.585938 74.707031 90.445312 73.105469 92.339844 71.546875 C 94.238281 69.992188 96.171875 68.480469 98.144531 67.019531 C 100.117188 65.554688 102.125 64.144531 104.164062 62.78125 C 106.207031 61.414062 108.277344 60.101562 110.382812 58.839844 C 112.488281 57.578125 114.625 56.367188 116.789062 55.210938 C 118.957031 54.054688 121.148438 52.953125 123.367188 51.902344 C 125.585938 50.851562 127.828125 49.859375 130.097656 48.917969 C 132.367188 47.980469 134.65625 47.09375 136.964844 46.269531 C 139.277344 45.441406 141.609375 44.671875 143.957031 43.957031 C 146.304688 43.246094 148.671875 42.589844 151.054688 41.996094 C 153.433594 41.398438 155.828125 40.859375 158.238281 40.382812 C 160.644531 39.902344 163.0625 39.484375 165.492188 39.125 C 167.917969 38.761719 170.355469 38.464844 172.796875 38.222656 C 175.242188 37.980469 177.6875 37.800781 180.140625 37.679688 C 182.589844 37.558594 185.046875 37.5 187.5 37.5 C 189.953125 37.5 192.410156 37.558594 194.859375 37.679688 C 197.3125 37.800781 199.757812 37.980469 202.203125 38.222656 C 204.644531 38.464844 207.082031 38.761719 209.507812 39.125 C 211.9375 39.484375 214.355469 39.902344 216.761719 40.382812 C 219.171875 40.859375 221.566406 41.398438 223.945312 41.996094 C 226.328125 42.589844 228.695312 43.246094 231.042969 43.957031 C 233.390625 44.671875 235.722656 45.441406 238.035156 46.269531 C 240.34375 47.09375 242.632812 47.980469 244.902344 48.917969 C 247.171875 49.859375 249.414062 50.851562 251.632812 51.902344 C 253.851562 52.953125 256.042969 54.054688 258.210938 55.210938 C 260.375 56.367188 262.511719 57.578125 264.617188 58.839844 C 266.722656 60.101562 268.792969 61.414062 270.835938 62.78125 C 272.875 64.144531 274.882812 65.554688 276.855469 67.019531 C 278.828125 68.480469 280.761719 69.992188 282.660156 71.546875 C 284.554688 73.105469 286.414062 74.707031 288.234375 76.355469 C 290.054688 78.007812 291.832031 79.699219 293.566406 81.433594 C 295.300781 83.167969 296.992188 84.945312 298.644531 86.765625 C 300.292969 88.585938 301.894531 90.445312 303.453125 92.339844 C 305.007812 94.238281 306.519531 96.171875 307.980469 98.144531 C 309.445312 100.117188 310.855469 102.125 312.21875 104.164062 C 313.585938 106.207031 314.898438 108.277344 316.160156 110.382812 C 317.421875 112.488281 318.632812 114.625 319.789062 116.789062 C 320.945312 118.957031 322.046875 121.148438 323.097656 123.367188 C 324.148438 125.585938 325.140625 127.828125 326.082031 130.097656 C 327.019531 132.367188 327.90625 134.65625 328.730469 136.964844 C 329.558594 139.277344 330.328125 141.609375 331.042969 143.957031 C 331.753906 146.304688 332.40625 148.671875 333.003906 151.054688 C 333.601562 153.433594 334.140625 155.828125 334.617188 158.238281 C 335.097656 160.644531 335.515625 163.0625 335.875 165.492188 C 336.238281 167.917969 336.535156 170.355469 336.777344 172.796875 C 337.019531 175.242188 337.199219 177.6875 337.320312 180.140625 C 337.441406 182.589844 337.5 185.046875 337.5 187.5 Z M 337.5 187.5 " fill-opacity="1" fill-rule="nonzero"/></g><path fill="#ffffff" d="M 280.960938 160.519531 L 255.648438 160.519531 L 240.320312 189.019531 C 239.925781 189.730469 239.355469 190.246094 238.613281 190.566406 L 238.378906 190.660156 C 238.035156 190.789062 237.675781 190.863281 237.308594 190.882812 L 237.160156 190.902344 L 144.113281 190.902344 L 156.816406 213.007812 L 220.660156 212.914062 L 221.257812 212.980469 C 221.542969 213.03125 221.820312 213.113281 222.085938 213.230469 C 222.351562 213.34375 222.597656 213.492188 222.832031 213.667969 C 223.0625 213.839844 223.265625 214.042969 223.449219 214.265625 C 223.632812 214.492188 223.785156 214.734375 223.910156 214.996094 C 224.035156 215.257812 224.125 215.53125 224.183594 215.816406 C 224.242188 216.097656 224.265625 216.386719 224.253906 216.675781 C 224.246094 216.964844 224.199219 217.25 224.121094 217.527344 C 224.042969 217.808594 223.933594 218.074219 223.789062 218.324219 L 223.789062 218.316406 L 186.328125 285.929688 L 198.582031 285.929688 L 200.804688 285.9375 L 210.441406 285.9375 C 210.683594 285.9375 211.425781 285.9375 211.996094 284.90625 Z M 214.539062 220.171875 L 189.789062 220.199219 L 167.804688 260.007812 C 167.410156 260.726562 167.492188 261.46875 167.679688 261.769531 L 173.851562 271.988281 L 175.480469 274.6875 L 177.074219 277.332031 L 180.101562 282.335938 Z M 119.382812 221.71875 L 93.75 221.71875 L 102.273438 235.828125 L 106.273438 242.457031 C 106.613281 243.019531 107.351562 243.449219 107.960938 243.449219 L 131.550781 243.449219 Z M 137.980469 194.679688 L 125.578125 218.054688 L 137.886719 240.027344 L 150.421875 216.328125 L 137.980469 194.671875 Z M 188.746094 89.0625 L 164.34375 89.0625 C 164.015625 89.101562 163.445312 89.269531 162.992188 90.09375 L 162.742188 90.554688 C 158.550781 98.089844 104.710938 195.207031 94.039062 214.492188 L 119.304688 214.492188 L 134.644531 185.585938 C 134.953125 185.011719 135.382812 184.554688 135.941406 184.214844 C 136.5 183.875 137.105469 183.703125 137.757812 183.695312 C 137.796875 183.683594 137.835938 183.675781 137.878906 183.675781 L 230.503906 183.675781 C 228.828125 180.757812 227.160156 177.835938 225.507812 174.910156 C 222.890625 170.304688 219.816406 164.878906 218.164062 162.007812 L 155.933594 162.101562 L 154.304688 162.101562 C 154.027344 162.097656 153.753906 162.0625 153.488281 161.992188 L 153.273438 161.925781 C 153.070312 161.863281 152.878906 161.785156 152.691406 161.691406 L 152.558594 161.632812 L 152.445312 161.539062 C 152.34375 161.484375 152.242188 161.410156 152.136719 161.335938 C 151.953125 161.199219 151.789062 161.042969 151.640625 160.867188 L 151.519531 160.726562 L 151.414062 160.585938 C 151.347656 160.496094 151.285156 160.402344 151.226562 160.304688 C 151.101562 160.105469 151.007812 159.894531 150.945312 159.664062 L 150.890625 159.496094 L 150.84375 159.328125 C 150.816406 159.21875 150.796875 159.105469 150.789062 158.992188 C 150.765625 158.859375 150.753906 158.730469 150.75 158.597656 L 150.730469 158.464844 L 150.75 158.289062 C 150.75 158.15625 150.757812 158.015625 150.789062 157.882812 L 150.863281 157.554688 C 150.925781 157.316406 151.007812 157.085938 151.117188 156.863281 L 151.191406 156.675781 Z M 237.09375 134.953125 C 234.132812 140.382812 227.0625 153.421875 224.371094 158.335938 C 225.789062 160.800781 228.308594 165.226562 231.75 171.289062 C 233.492188 174.367188 235.351562 177.648438 236.851562 180.261719 L 249.414062 156.9375 Z M 194.933594 92.746094 L 160.460938 154.808594 L 185.210938 154.78125 L 207.179688 114.992188 C 207.570312 114.273438 207.488281 113.53125 207.300781 113.230469 L 201.167969 103.070312 L 199.539062 100.367188 L 197.195312 96.46875 L 194.945312 92.746094 Z M 243.441406 131.550781 L 255.609375 153.28125 L 281.25 153.28125 L 273.320312 140.15625 L 268.726562 132.554688 C 268.328125 131.929688 267.757812 131.597656 267.019531 131.558594 Z M 243.441406 131.550781 " fill-opacity="1" fill-rule="nonzero"/></svg>